<svg width="96" height="21" viewBox="0 0 96 21" fill="none" xmlns="http://www.w3.org/2000/svg">
<g clip-path="url(#clip0_1_136)">
<path d="M0.617063 3.97019C1.0361 3.32027 1.63066 2.80383 2.3311 2.48135C3.11826 2.11502 3.97776 1.93278 4.84503 1.94831C5.9017 1.90609 6.94881 2.16409 7.86631 2.69273C8.63184 3.15073 9.19433 3.88554 9.43866 4.74678H7.65606C7.48457 4.23987 7.13301 3.81443 6.66877 3.55203C6.11178 3.2357 5.47999 3.07691 4.84046 3.09251C4.00302 3.05295 3.18322 3.34307 2.55507 3.90127C2.2542 4.19891 2.02052 4.55814 1.86989 4.95456C1.71926 5.35099 1.6552 5.77535 1.68205 6.19886C1.65903 6.62198 1.72487 7.04523 1.87528 7.44108C2.0257 7.83694 2.25731 8.19652 2.55507 8.49645C3.18276 9.05589 4.00247 9.34761 4.84046 9.3098C5.47661 9.33663 6.1082 9.19059 6.66877 8.88704C7.13964 8.62375 7.49519 8.19252 7.6652 7.67851H9.4478C9.17737 8.52827 8.60878 9.25016 7.84803 9.70958C6.94384 10.2485 5.90465 10.5149 4.85417 10.477C3.9869 10.4925 3.1274 10.3103 2.34025 9.94394C1.63948 9.61978 1.04497 9.10178 0.626204 8.4505C0.208935 7.78008 -0.00838438 7.00345 7.96479e-06 6.21265C-0.0175368 5.4205 0.197052 4.64065 0.617063 3.97019Z" fill="#F2F2F2"/>
<path d="M13.4381 9.97622C12.7159 9.65461 12.0993 9.13355 11.66 8.4736C11.2236 7.80248 10.9989 7.01444 11.0156 6.21277C11.0004 5.41435 11.232 4.63088 11.6783 3.97031C12.1285 3.3106 12.7541 2.79148 13.4838 2.47228C14.2894 2.11397 15.1626 1.93525 16.0434 1.94843C16.9242 1.93569 17.7973 2.11438 18.6031 2.47228C19.3288 2.79352 19.9532 3.30842 20.4085 3.96112C20.8547 4.62518 21.0862 5.41152 21.0713 6.21277C21.0864 7.01963 20.8481 7.81074 20.3902 8.4736C19.928 9.13223 19.2959 9.65172 18.5619 9.97622C17.7507 10.3381 16.8714 10.5199 15.984 10.5093C15.1066 10.5228 14.2372 10.3407 13.4381 9.97622ZM17.6386 8.9515C18.1476 8.7287 18.5845 8.36742 18.9002 7.90839C19.223 7.40417 19.3826 6.81186 19.3572 6.21277C19.3804 5.63794 19.2299 5.06953 18.9256 4.58232C18.6213 4.09512 18.1774 3.71194 17.6523 3.48323C17.1284 3.25887 16.5649 3.14323 15.9954 3.14323C15.426 3.14323 14.8624 3.25887 14.3385 3.48323C13.8467 3.70587 13.4293 4.06647 13.1364 4.52174C12.819 5.02668 12.6598 5.61579 12.6793 6.21277C12.6651 6.81489 12.8238 7.40837 13.1364 7.92217C13.4237 8.37775 13.8388 8.73753 14.3294 8.95609C14.8419 9.18832 15.399 9.30441 15.9611 9.29613C16.5382 9.30081 17.1097 9.18338 17.6386 8.9515Z" fill="#F2F2F2"/>
<path d="M39.4321 15.9821V20.8667H37.8003V16.1797C37.8225 15.8277 37.7673 15.4752 37.6385 15.1471C37.5097 14.8191 37.3106 14.5237 37.0553 14.2818C36.4809 13.8184 35.7566 13.5844 35.0213 13.6247C34.2695 13.584 33.5296 13.8265 32.9461 14.3048C32.6797 14.5569 32.4721 14.8653 32.3386 15.2078C32.205 15.5503 32.1487 15.9183 32.1737 16.2853V20.8805H30.5236V5.71641C30.5455 5.3645 30.4901 5.01206 30.3614 4.68408C30.2326 4.3561 30.0337 4.06062 29.7786 3.8186C29.2089 3.34361 28.4841 3.098 27.7446 3.12932C26.9928 3.08859 26.2529 3.33107 25.6695 3.80941C25.4035 4.0619 25.1963 4.37038 25.0628 4.71277C24.9292 5.05515 24.8726 5.42299 24.897 5.78994V10.3851H23.247V2.11379H24.897V3.26718C25.2482 2.83038 25.7089 2.49568 26.2317 2.2976C26.8226 2.05821 27.455 1.93949 28.092 1.94836C29.1479 1.90391 30.1865 2.22868 31.031 2.8674C31.4087 3.18955 31.7069 3.59546 31.902 4.05317C32.0971 4.51088 32.1839 5.00788 32.1554 5.50503V9.69585V13.7764C32.5145 13.3298 32.9889 12.9912 33.5266 12.7976C34.1409 12.5561 34.7961 12.4375 35.4555 12.4484C36.1538 12.4374 36.8467 12.5735 37.4895 12.8481C38.0731 13.0984 38.5695 13.5175 38.9156 14.0521C39.2701 14.6315 39.4495 15.302 39.4321 15.9821Z" fill="#F2F2F2"/>
<path d="M36.877 3.21663V8.10131C36.86 8.25782 36.8787 8.41617 36.9318 8.56429C36.9848 8.71241 37.0709 8.8464 37.1833 8.95602C37.5027 9.15565 37.8784 9.24443 38.2528 9.20875H39.4686V10.3713H37.9831C37.2543 10.4243 36.528 10.239 35.9126 9.84289C35.6689 9.62801 35.4793 9.35817 35.3594 9.05546C35.2394 8.75275 35.1925 8.42577 35.2224 8.10131V3.21663H33.938V2.08621H35.2224V0H36.877V2.08621H39.4686V3.21663H36.877Z" fill="#F2F2F2"/>
<path d="M50.4842 6.74117H42.5356C42.551 7.11612 42.6498 7.48284 42.8246 7.81442C42.9994 8.14601 43.2458 8.43403 43.5458 8.65736C44.1914 9.12446 44.972 9.36506 45.7672 9.34205C46.3887 9.3643 47.0051 9.22166 47.5543 8.92848C48.0054 8.67983 48.361 8.28682 48.5645 7.81185H50.3425C50.054 8.6292 49.4874 9.3177 48.7427 9.75561C47.8404 10.2809 46.8093 10.5405 45.7672 10.5046C44.8942 10.5187 44.029 10.3366 43.235 9.97159C42.5211 9.64839 41.9138 9.12711 41.4844 8.46896C41.0529 7.79598 40.8316 7.00859 40.849 6.20813C40.8242 5.42006 41.0348 4.64259 41.4535 3.97592C41.8723 3.30925 42.48 2.78392 43.1984 2.46765C44.0059 2.10518 44.883 1.92631 45.7672 1.9438C46.6296 1.92807 47.4848 2.1038 48.272 2.45846C48.9521 2.76267 49.5334 3.25313 49.9494 3.87377C50.3435 4.47633 50.5489 5.18379 50.5391 5.90485C50.5383 6.1845 50.52 6.46383 50.4842 6.74117ZM48.4182 4.26896C48.1261 3.88324 47.7339 3.58592 47.2847 3.40966C46.783 3.20971 46.2474 3.10983 45.7078 3.11557C44.9437 3.09273 44.194 3.32725 43.5778 3.78187C43.2886 3.99797 43.0489 4.27383 42.8746 4.59088C42.7004 4.90793 42.5957 5.25882 42.5676 5.61994H48.8479C48.8555 5.13449 48.7046 4.65992 48.4182 4.26896Z" fill="#F2F2F2"/>
<path d="M60.5034 2.84907C60.8811 3.17122 61.1792 3.57714 61.3744 4.03485C61.5695 4.49256 61.6562 4.98956 61.6278 5.48671V10.3714H59.996V5.6843C60.0189 5.33229 59.9639 4.97956 59.8351 4.65143C59.7063 4.32331 59.5068 4.02792 59.251 3.78649C58.6766 3.32304 57.9523 3.08905 57.217 3.12938C56.4652 3.08864 55.7253 3.33113 55.1418 3.80947C54.8795 4.06367 54.6762 4.37303 54.5466 4.71541C54.417 5.05779 54.3643 5.42474 54.3922 5.78999V10.3852H52.7422V2.11384H54.3922V3.26723C54.7382 2.8348 55.1903 2.5006 55.7041 2.29765C56.2951 2.05873 56.9274 1.94003 57.5644 1.94842C58.6181 1.89869 59.6564 2.2169 60.5034 2.84907Z" fill="#F2F2F2"/>
<path d="M66.3448 3.21663V8.10131C66.3287 8.25815 66.3483 8.41662 66.4021 8.56471C66.456 8.7128 66.5427 8.84662 66.6556 8.95602C66.975 9.15565 67.3508 9.24443 67.7252 9.20875H68.941V10.3713H67.4555C66.7266 10.425 66.0001 10.2396 65.3849 9.84289C65.1404 9.62872 64.9502 9.35899 64.8302 9.05609C64.7101 8.75319 64.6637 8.42587 64.6948 8.10131V3.21663H63.4058V2.08621H64.6948V0H66.3448V2.08621H68.941V3.21663H66.3448Z" fill="#F2F2F2"/>
<path d="M51.1561 17.2366H43.2075C43.222 17.6111 43.3203 17.9775 43.4952 18.3085C43.6702 18.6395 43.9171 18.9265 44.2177 19.1482C44.8617 19.6191 45.6431 19.8616 46.4391 19.8375C47.0605 19.8593 47.6768 19.7167 48.2263 19.4239C48.676 19.177 49.0301 18.7854 49.2318 18.3119H51.0099C50.7273 19.13 50.161 19.8184 49.4147 20.251C48.513 20.778 47.4814 21.0377 46.4391 21.0001C45.5664 21.016 44.7012 20.8355 43.9069 20.4716C43.1952 20.145 42.5887 19.6245 42.1563 18.969C41.7258 18.2955 41.5047 17.5085 41.5209 16.7082C41.5032 15.9131 41.7177 15.1303 42.138 14.4565C42.5604 13.799 43.1661 13.2812 43.8795 12.9677C44.687 12.6052 45.5641 12.4263 46.4482 12.4438C47.3108 12.4263 48.1665 12.6021 48.953 12.9585C49.6332 13.2627 50.2145 13.7532 50.6305 14.3738C51.0149 14.9794 51.2107 15.6867 51.1927 16.4049C51.1977 16.6826 51.1854 16.9604 51.1561 17.2366ZM49.0901 14.7644C48.7985 14.3763 48.4041 14.0785 47.952 13.9051C47.4481 13.7012 46.9091 13.5997 46.366 13.6064C45.6008 13.5857 44.8503 13.82 44.2314 14.2727C43.9439 14.4901 43.7057 14.7663 43.5323 15.0832C43.359 15.4001 43.2545 15.7503 43.2258 16.1108H49.5061C49.515 15.6287 49.3692 15.1566 49.0901 14.7644Z" fill="#F2F2F2"/>
<path d="M53.3867 14.4609C53.8044 13.8151 54.3933 13.2995 55.087 12.9721C55.8378 12.6138 56.6602 12.433 57.4912 12.4436C58.2779 12.4191 59.0598 12.5763 59.7766 12.9032C60.3512 13.1611 60.8467 13.5689 61.2118 14.0841V12.5815H62.8802V20.8528H61.2118V19.3226C60.8377 19.8459 60.3333 20.2611 59.7492 20.5266C59.0413 20.851 58.2689 21.0082 57.4912 20.9861C56.6613 20.9995 55.8402 20.8136 55.0961 20.4439C54.4033 20.1018 53.818 19.5738 53.4049 18.9183C52.9895 18.2475 52.7752 17.4705 52.7879 16.6804C52.7688 15.8978 52.9769 15.1266 53.3867 14.4609ZM60.7365 15.0767C60.4367 14.612 60.0119 14.2423 59.5115 14.0106C58.9799 13.7696 58.4034 13.645 57.8203 13.645C57.2372 13.645 56.6607 13.7696 56.1291 14.0106C55.6183 14.2446 55.1876 14.6249 54.8908 15.1039C54.594 15.5829 54.4444 16.1393 54.4608 16.7034C54.4437 17.2724 54.5926 17.8339 54.889 18.3189C55.1855 18.8039 55.6165 19.1911 56.1291 19.4329C56.6566 19.6816 57.2332 19.8073 57.8157 19.8005C58.4012 19.8068 58.9806 19.6812 59.5115 19.4329C60.0245 19.1941 60.4569 18.8099 60.7557 18.3275C61.0545 17.845 61.2067 17.2853 61.1935 16.7172C61.2077 16.1367 61.0485 15.5653 60.7365 15.0767Z" fill="#F2F2F2"/>
<path d="M69.3569 19.5938L72.4422 12.5815H74.202L70.3031 20.8529H68.3788L64.4754 12.5815H66.2762L69.3569 19.5938Z" fill="#F2F2F2"/>
<path d="M84.8565 17.2366H76.9079C76.9224 17.6106 77.0204 17.9765 77.1944 18.3074C77.3685 18.6382 77.6142 18.9256 77.9134 19.1482C78.5595 19.6185 79.3421 19.8609 80.1394 19.8375C80.7609 19.8593 81.3772 19.7167 81.9266 19.4239C82.3763 19.177 82.7304 18.7854 82.9322 18.3119H84.7102C84.4261 19.1292 83.8602 19.8172 83.115 20.251C82.2133 20.778 81.1817 21.0377 80.1394 21.0001C79.2667 21.016 78.4015 20.8355 77.6072 20.4716C76.9013 20.1436 76.3011 19.623 75.8749 18.969C75.4445 18.2955 75.2233 17.5085 75.2395 16.7082C75.2218 15.9131 75.4364 15.1303 75.8566 14.4565C76.2766 13.8004 76.8789 13.2827 77.5889 12.9677C78.3964 12.6052 79.2735 12.4263 80.1577 12.4438C81.0203 12.4263 81.8759 12.6021 82.6625 12.9585C83.3419 13.264 83.9228 13.7542 84.34 14.3738C84.734 14.9764 84.9394 15.6838 84.9296 16.4049C84.9224 16.6834 84.898 16.9612 84.8565 17.2366ZM82.7859 14.7644C82.496 14.3764 82.1031 14.0786 81.6523 13.9051C81.1485 13.7012 80.6094 13.5997 80.0663 13.6064C79.3011 13.5857 78.5506 13.82 77.9317 14.2727C77.6436 14.4895 77.4049 14.7656 77.2315 15.0826C77.0581 15.3995 76.954 15.7501 76.9262 16.1108H83.1881C83.203 15.63 83.0618 15.1574 82.7859 14.7644Z" fill="#F2F2F2"/>
<path d="M94.8756 13.326C95.2534 13.6514 95.5505 14.0609 95.7433 14.522C95.9361 14.9831 96.0193 15.483 95.9863 15.982V20.8667H94.3499V16.1796C94.3731 15.828 94.3187 15.4756 94.1907 15.1475C94.0627 14.8195 93.8642 14.5239 93.6095 14.2818C93.0362 13.8164 92.3111 13.5822 91.5755 13.6247C90.8223 13.5841 90.0811 13.8265 89.4958 14.3048C89.2304 14.5575 89.0239 14.8661 88.8911 15.2086C88.7584 15.551 88.7026 15.9187 88.7279 16.2853V20.8805H87.0733V12.6092H88.7279V13.7855C89.0759 13.3452 89.5353 13.0071 90.058 12.8068C90.649 12.5678 91.2813 12.4491 91.9183 12.4575C92.9746 12.3915 94.0207 12.6987 94.8756 13.326Z" fill="#F2F2F2"/>
</g>
<defs>
<clipPath id="clip0_1_136">
<rect width="96" height="21" fill="white"/>
</clipPath>
</defs>
</svg>
