<svg width="115" height="54" viewBox="0 0 115 54" fill="none" xmlns="http://www.w3.org/2000/svg">
<g clip-path="url(#clip0_26_239)">
<path d="M-8.74768e-06 50.8788C-8.74768e-06 50.6288 0.0602236 50.4069 0.183426 50.213C0.306629 50.0192 0.465423 49.8619 0.659809 49.7355C0.854196 49.609 1.10608 49.5023 1.41819 49.4124C1.72756 49.3225 2.0342 49.2523 2.33536 49.2045C2.63653 49.1568 2.99518 49.109 3.4086 49.064V48.9685C3.4086 48.5556 3.31003 48.2606 3.11565 48.0808C2.92126 47.901 2.66664 47.8111 2.35179 47.8111C2.05611 47.8111 1.81518 47.8926 1.63174 48.0527C1.44557 48.2128 1.34701 48.446 1.33605 48.7494H0.235445C0.273775 48.2156 0.490064 47.783 0.884312 47.4543C1.27856 47.1256 1.78232 46.9627 2.39012 46.9627C3.04994 46.9627 3.57287 47.1369 3.96164 47.488C4.35041 47.8392 4.53932 48.4067 4.52563 49.1933C4.52563 49.2635 4.52289 49.463 4.51742 49.7888C4.51194 50.1147 4.5092 50.3647 4.5092 50.5389C4.5092 51.2609 4.55849 51.8537 4.65979 52.3172H3.6331C3.5756 51.9885 3.54549 51.7525 3.54001 51.6121C3.22516 52.1655 2.66938 52.4436 1.87267 52.4436C1.31963 52.4436 0.870623 52.3032 0.52018 52.0194C0.172475 51.7357 -0.00274658 51.3592 -0.00274658 50.8901L-8.74768e-06 50.8788ZM3.43597 49.8647C2.61462 49.9434 2.0342 50.0529 1.69471 50.199C1.35522 50.3451 1.18547 50.5614 1.18547 50.8508C1.18547 51.0755 1.27035 51.2525 1.44009 51.3817C1.60984 51.5109 1.83434 51.5755 2.11908 51.5755C2.5407 51.5755 2.86377 51.4632 3.09374 51.2412C3.32372 51.0193 3.43597 50.6906 3.43597 50.2608V49.8647Z" fill="#F2F2F2"/>
<path d="M6.7789 47.8364C7.08006 47.2774 7.59204 46.9965 8.31483 46.9965C9.46472 46.9965 10.0369 47.6791 10.0369 49.0444V52.3088H8.91715V49.3225C8.91715 49.1624 8.91167 49.022 8.89799 48.9012C8.8843 48.7832 8.85966 48.6567 8.82406 48.5303C8.78573 48.4011 8.73372 48.2972 8.66801 48.2157C8.6023 48.1342 8.50921 48.0668 8.38601 48.0134C8.26281 47.9572 8.12044 47.932 7.95891 47.932C7.17315 47.932 6.78164 48.4713 6.78164 49.5445V52.3088H5.66187V47.1116H6.78164V47.8364H6.7789Z" fill="#F2F2F2"/>
<path d="M14.171 50.0389C14.2094 50.4968 14.3599 50.8508 14.6283 51.1008C14.8966 51.3508 15.2005 51.4773 15.5454 51.4773C16.1724 51.4773 16.5885 51.2357 16.7884 50.7525H17.889C17.7576 51.216 17.4948 51.6121 17.0978 51.9408C16.7035 52.2695 16.1998 52.4324 15.592 52.4324C14.8062 52.4324 14.1847 52.1655 13.722 51.6346C13.2593 51.1036 13.0294 50.4491 13.0294 49.6681C13.0294 48.8871 13.2621 48.2466 13.7302 47.7465C14.1984 47.2465 14.7925 46.9937 15.5153 46.9937C16.2874 46.9937 16.8979 47.2802 17.3469 47.8533C17.7959 48.4264 17.9958 49.154 17.9438 50.0361H14.1683L14.171 50.0389ZM14.171 49.1989H16.8076C16.7939 48.8056 16.6625 48.491 16.4133 48.2522C16.1614 48.0134 15.863 47.8954 15.518 47.8954C15.2032 47.8954 14.913 47.9994 14.6419 48.2101C14.3709 48.4208 14.2148 48.7495 14.171 49.2017V49.1989Z" fill="#BEBEBE"/>
<path d="M18.3983 50.3676C18.3983 49.8647 18.5516 49.4405 18.8609 49.0922C19.1676 48.7438 19.5673 48.4797 20.0574 48.2999C19.5728 47.7212 19.3319 47.1875 19.3319 46.7071C19.3319 46.2267 19.5098 45.8727 19.8685 45.5946C20.2271 45.3165 20.6816 45.1788 21.2347 45.1788C21.7302 45.1788 22.16 45.3052 22.5187 45.5553C22.8801 45.8053 23.0608 46.1958 23.0608 46.7239C23.0608 47.1172 22.9403 47.4684 22.6994 47.783C22.4585 48.0949 22.1381 48.3449 21.7439 48.5331L22.8363 49.7411C22.9814 49.3478 23.069 48.9124 23.0991 48.4376H24.2298C24.1477 49.2101 23.9287 49.9181 23.57 50.5642L25.1415 52.3116H23.6056L22.8801 51.4997C22.2586 52.1234 21.5249 52.438 20.6761 52.438C19.9971 52.438 19.4496 52.2414 19.028 51.8481C18.6063 51.4548 18.3983 50.9631 18.3983 50.3704V50.3676ZM22.2504 50.7833L20.6488 48.977C19.926 49.2607 19.5673 49.7018 19.5673 50.3002C19.5673 50.6682 19.6823 50.9575 19.915 51.1738C20.1477 51.3902 20.4681 51.4969 20.876 51.4969C21.3907 51.4969 21.8479 51.2581 22.2504 50.7833ZM21.158 47.8757L21.1662 47.8842C21.7192 47.6341 21.9958 47.2605 21.9958 46.7633C21.9958 46.5385 21.9246 46.3615 21.785 46.2379C21.6426 46.1115 21.4646 46.0497 21.2429 46.0497C21.0348 46.0497 20.8596 46.1059 20.7145 46.2183C20.5694 46.3306 20.4982 46.4851 20.4982 46.6762C20.4982 46.9992 20.7172 47.3982 21.158 47.8729V47.8757Z" fill="#BEBEBE"/>
<path d="M28.3886 50.0389C28.427 50.4968 28.5775 50.8508 28.8458 51.1008C29.1142 51.3508 29.4181 51.4773 29.763 51.4773C30.39 51.4773 30.8061 51.2357 31.006 50.7525H32.1066C31.9752 51.216 31.7124 51.6121 31.3154 51.9408C30.9211 52.2695 30.4174 52.4324 29.8096 52.4324C29.0238 52.4324 28.4023 52.1655 27.9396 51.6346C27.4769 51.1036 27.2469 50.4491 27.2469 49.6681C27.2469 48.8871 27.4797 48.2466 27.9478 47.7465C28.416 47.2465 29.0101 46.9937 29.7329 46.9937C30.505 46.9937 31.1155 47.2802 31.5645 47.8533C32.0135 48.4264 32.2134 49.154 32.1614 50.0361H28.3859L28.3886 50.0389ZM28.3886 49.1989H31.0252C31.0115 48.8056 30.8801 48.491 30.6309 48.2522C30.379 48.0134 30.0806 47.8954 29.7356 47.8954C29.4208 47.8954 29.1306 47.9994 28.8595 48.2101C28.5885 48.4208 28.4324 48.7495 28.3886 49.2017V49.1989Z" fill="#BEBEBE"/>
<path d="M34.2065 47.8364C34.5077 47.2774 35.0197 46.9965 35.7424 46.9965C36.8923 46.9965 37.4645 47.6791 37.4645 49.0444V52.3088H36.3448V49.3225C36.3448 49.1624 36.3393 49.022 36.3256 48.9012C36.3119 48.7832 36.2873 48.6567 36.2517 48.5303C36.2133 48.4011 36.1613 48.2972 36.0956 48.2157C36.0299 48.1342 35.9368 48.0668 35.8136 48.0134C35.6904 47.9572 35.5481 47.932 35.3865 47.932C34.6008 47.932 34.2093 48.4713 34.2093 49.5445V52.3088H33.0895V47.1116H34.2093V47.8364H34.2065Z" fill="#BEBEBE"/>
<path d="M38.7924 45.7407H39.9122V47.1116H40.9279V47.9431H39.9122V50.7749C39.9122 51.039 39.9532 51.2131 40.0354 51.3002C40.1175 51.3873 40.2763 51.4295 40.5145 51.4295H40.9197V52.3088H40.0901C39.5562 52.3088 39.2058 52.2161 39.0415 52.0335C38.8745 51.8509 38.7924 51.4885 38.7924 50.9463V47.9403H38.0395V47.1088H38.7924V45.7379V45.7407Z" fill="#BEBEBE"/>
<path d="M42.6336 50.0389C42.6719 50.4968 42.8225 50.8508 43.0908 51.1008C43.3591 51.3508 43.663 51.4773 44.008 51.4773C44.6349 51.4773 45.0511 51.2357 45.2509 50.7525H46.3515C46.2201 51.216 45.9573 51.6121 45.5603 51.9408C45.1661 52.2695 44.6623 52.4324 44.0545 52.4324C43.2687 52.4324 42.6472 52.1655 42.1846 51.6346C41.7219 51.1036 41.4919 50.4491 41.4919 49.6681C41.4919 48.8871 41.7246 48.2466 42.1928 47.7465C42.6609 47.2465 43.255 46.9937 43.9778 46.9937C44.7499 46.9937 45.3604 47.2802 45.8094 47.8533C46.2585 48.4264 46.4583 49.154 46.4063 50.0361H42.6308L42.6336 50.0389ZM42.6336 49.1989H45.2701C45.2564 48.8056 45.125 48.491 44.8758 48.2522C44.624 48.0134 44.3255 47.8954 43.9806 47.8954C43.6657 47.8954 43.3755 47.9994 43.1045 48.2101C42.8334 48.4208 42.6774 48.7495 42.6336 49.2017V49.1989Z" fill="#BEBEBE"/>
<path d="M50.0996 48.2803C49.9107 48.2606 49.7328 48.2522 49.563 48.2522C49.1852 48.2522 48.9059 48.3505 48.7253 48.5472C48.5418 48.7438 48.4515 49.0894 48.4515 49.5866V52.3116H47.3317V47.1144H48.4323V48.0415C48.7198 47.4291 49.1797 47.1173 49.8067 47.1032C49.8888 47.1032 49.9847 47.1088 50.0996 47.1229V48.2831V48.2803Z" fill="#BEBEBE"/>
<path d="M51.9258 47.1116V47.8083C52.2461 47.2662 52.7471 46.9965 53.4316 46.9965C54.0585 46.9965 54.5787 47.2437 54.9894 47.7409C55.4001 48.2382 55.6054 48.8927 55.6054 49.713C55.6054 50.5333 55.4001 51.1907 54.9894 51.688C54.5787 52.188 54.0585 52.438 53.4316 52.438C52.7471 52.438 52.2461 52.1683 51.9258 51.6262V54.0028H50.806V47.1145H51.9258V47.1116ZM53.1879 51.4969C53.5767 51.4969 53.8833 51.3368 54.1051 51.0194C54.3269 50.7019 54.4391 50.2637 54.4391 49.7102C54.4391 49.1568 54.3269 48.7298 54.1051 48.4123C53.8833 48.0921 53.5767 47.9348 53.1879 47.9348C52.7991 47.9348 52.4925 48.0865 52.2461 48.3927C51.9997 48.6989 51.8792 49.1371 51.8792 49.7102C51.8792 50.2833 52.0024 50.7244 52.2461 51.0334C52.4898 51.3424 52.8046 51.4969 53.1879 51.4969Z" fill="#BEBEBE"/>
<path d="M59.2878 48.2803C59.0989 48.2606 58.9209 48.2522 58.7512 48.2522C58.3734 48.2522 58.0941 48.3505 57.9134 48.5472C57.73 48.7438 57.6396 49.0894 57.6396 49.5866V52.3116H56.5199V47.1144H57.6205V48.0415C57.908 47.4291 58.3679 47.1173 58.9949 47.1032C59.077 47.1032 59.1728 47.1088 59.2878 47.1229V48.2831V48.2803Z" fill="#BEBEBE"/>
<path d="M61.1139 45.3052V46.4655H59.9942V45.3052H61.1139ZM61.1139 47.1116V52.3088H59.9942V47.1116H61.1139Z" fill="#BEBEBE"/>
<path d="M65.2672 48.5331C65.155 48.0949 64.7826 47.8758 64.1557 47.8758C63.8983 47.8758 63.6766 47.9291 63.4931 48.0359C63.307 48.1426 63.2166 48.2803 63.2166 48.446C63.2166 48.7691 63.4438 48.9742 63.8956 49.0641L64.6102 49.2102C64.8922 49.2692 65.1331 49.331 65.3302 49.3984C65.5273 49.4658 65.7135 49.5585 65.8915 49.6737C66.0667 49.7889 66.1981 49.9378 66.2857 50.1176C66.3733 50.2974 66.4171 50.5109 66.4171 50.7553C66.4171 51.2778 66.2091 51.688 65.7956 51.9857C65.3822 52.2863 64.873 52.4352 64.2707 52.4352C63.6683 52.4352 63.1591 52.2751 62.7649 51.9576C62.3706 51.6402 62.1406 51.2272 62.0777 50.7272H63.1701C63.2768 51.2862 63.6574 51.5672 64.309 51.5672C64.6102 51.5672 64.8538 51.5054 65.0427 51.3846C65.2317 51.2638 65.3247 51.098 65.3247 50.8929C65.3247 50.5333 65.0318 50.2946 64.4486 50.1794L63.6848 50.0249C62.669 49.8198 62.1598 49.3141 62.1598 48.5079C62.1598 48.064 62.3597 47.7016 62.7621 47.4207C63.1646 47.1397 63.6492 46.9993 64.2214 46.9993C64.7416 46.9993 65.1961 47.1313 65.5876 47.3954C65.9763 47.6594 66.2227 48.0387 66.3213 48.5359H65.2672V48.5331Z" fill="#BEBEBE"/>
<path d="M68.1776 50.0389C68.2159 50.4968 68.3665 50.8508 68.6348 51.1008C68.9004 51.3508 69.207 51.4773 69.552 51.4773C70.1789 51.4773 70.5951 51.2357 70.7949 50.7525H71.8955C71.7641 51.216 71.5013 51.6121 71.1043 51.9408C70.7101 52.2695 70.2063 52.4324 69.5985 52.4324C68.8127 52.4324 68.1913 52.1655 67.7286 51.6346C67.2659 51.1036 67.0359 50.4491 67.0359 49.6681C67.0359 48.8871 67.2686 48.2466 67.7368 47.7465C68.2049 47.2465 68.7991 46.9937 69.5218 46.9937C70.2939 46.9937 70.9044 47.2802 71.3535 47.8533C71.8025 48.4264 72.0023 49.154 71.9503 50.0361H68.1748L68.1776 50.0389ZM68.1776 49.1989H70.8141C70.8004 48.8056 70.669 48.491 70.4198 48.2522C70.168 48.0134 69.8695 47.8954 69.5246 47.8954C69.2097 47.8954 68.9195 47.9994 68.6485 48.2101C68.3774 48.4208 68.2214 48.7495 68.1776 49.2017V49.1989Z" fill="#BEBEBE"/>
<path d="M79.4465 48.8899H78.3541C78.3048 48.6118 78.1707 48.3871 77.9544 48.2129C77.7381 48.0387 77.478 47.9516 77.1768 47.9516C76.799 47.9516 76.4841 48.1005 76.2295 48.3955C75.9749 48.6905 75.849 49.1287 75.849 49.7102C75.849 50.2917 75.9749 50.73 76.2268 51.0278C76.4787 51.3284 76.7853 51.4773 77.1494 51.4773C77.4506 51.4773 77.7162 51.4014 77.9462 51.2441C78.1761 51.0896 78.324 50.8508 78.3924 50.5305H79.4848C79.378 51.1177 79.1015 51.5812 78.6525 51.9211C78.2035 52.2639 77.697 52.4324 77.133 52.4324C76.4048 52.4324 75.8161 52.1768 75.3671 51.6655C74.9181 51.1542 74.6936 50.5053 74.6936 49.7187C74.6936 48.9321 74.9236 48.2831 75.3808 47.7662C75.838 47.2493 76.4376 46.9937 77.1796 46.9937C77.7435 46.9937 78.2418 47.1678 78.6662 47.5162C79.0933 47.8645 79.3534 48.3224 79.4465 48.8871V48.8899Z" fill="#F2F2F2"/>
<path d="M84.2815 47.7016C84.7743 48.1707 85.0207 48.845 85.0207 49.7215C85.0207 50.598 84.7743 51.2694 84.2815 51.7357C83.7887 52.2021 83.2028 52.4352 82.5266 52.4352C81.8503 52.4352 81.2644 52.2021 80.7716 51.7357C80.2788 51.2694 80.0324 50.598 80.0324 49.7215C80.0324 48.845 80.2788 48.1736 80.7716 47.7016C81.2644 47.2324 81.8503 46.9965 82.5266 46.9965C83.2028 46.9965 83.7887 47.2324 84.2815 47.7016ZM81.5738 51.0362C81.8312 51.3452 82.1488 51.4997 82.5238 51.4997C82.8989 51.4997 83.2165 51.3452 83.4739 51.0362C83.7312 50.7272 83.8599 50.2889 83.8599 49.7215C83.8599 49.154 83.7312 48.7073 83.4739 48.3983C83.2165 48.0893 82.8989 47.9348 82.5238 47.9348C82.1488 47.9348 81.8312 48.0893 81.5738 48.3983C81.3165 48.7073 81.1878 49.1484 81.1878 49.7215C81.1878 50.2946 81.3165 50.7272 81.5738 51.0362Z" fill="#F2F2F2"/>
<path d="M87.0632 52.3088H85.9434V47.1116H87.0632V47.8364C87.3643 47.2774 87.8544 46.9965 88.5334 46.9965C89.2671 46.9965 89.7599 47.3027 90.0118 47.9151C90.4143 47.3027 90.9618 46.9965 91.66 46.9965C92.7661 46.9965 93.3164 47.6791 93.3164 49.0444V52.3088H92.1966V49.3225C92.1966 49.109 92.1884 48.9349 92.172 48.7972C92.1555 48.6596 92.1199 48.5163 92.0625 48.373C92.005 48.2269 91.9146 48.1174 91.7887 48.0443C91.6627 47.9713 91.5012 47.932 91.2986 47.932C90.5566 47.932 90.187 48.4713 90.187 49.5445V52.3088H89.0673V49.3225C89.0673 49.109 89.059 48.9349 89.0426 48.7972C89.0262 48.6596 88.9906 48.5163 88.9331 48.373C88.8756 48.2269 88.7853 48.1174 88.6593 48.0443C88.5334 47.9713 88.3719 47.932 88.1693 47.932C87.4273 47.932 87.0577 48.4713 87.0577 49.5445V52.3088H87.0632Z" fill="#F2F2F2"/>
<path d="M95.6025 47.1116V47.8083C95.9228 47.2662 96.4238 46.9965 97.1083 46.9965C97.7352 46.9965 98.2554 47.2437 98.6661 47.7409C99.0768 48.2382 99.2821 48.8927 99.2821 49.713C99.2821 50.5333 99.0768 51.1907 98.6661 51.688C98.2554 52.188 97.7352 52.438 97.1083 52.438C96.4238 52.438 95.9228 52.1683 95.6025 51.6262V54.0028H94.4827V47.1145H95.6025V47.1116ZM96.8646 51.4969C97.2534 51.4969 97.56 51.3368 97.7818 51.0194C98.0035 50.7019 98.1158 50.2637 98.1158 49.7102C98.1158 49.1568 98.0035 48.7298 97.7818 48.4123C97.56 48.0921 97.2534 47.9348 96.8646 47.9348C96.4758 47.9348 96.1692 48.0865 95.9228 48.3927C95.6791 48.6989 95.5559 49.1371 95.5559 49.7102C95.5559 50.2833 95.6791 50.7244 95.9228 51.0334C96.1665 51.3424 96.4813 51.4969 96.8646 51.4969Z" fill="#F2F2F2"/>
<path d="M99.8488 50.8788C99.8488 50.6288 99.9091 50.4069 100.032 50.213C100.155 50.0192 100.314 49.8619 100.509 49.7355C100.703 49.609 100.955 49.5023 101.267 49.4124C101.579 49.3225 101.883 49.2523 102.184 49.2045C102.485 49.1568 102.844 49.109 103.257 49.064V48.9685C103.257 48.5556 103.159 48.2606 102.964 48.0808C102.77 47.901 102.515 47.8111 102.201 47.8111C101.905 47.8111 101.667 47.8926 101.481 48.0527C101.294 48.2128 101.196 48.446 101.185 48.7494H100.084C100.123 48.2156 100.339 47.783 100.733 47.4543C101.127 47.1256 101.631 46.9627 102.239 46.9627C102.899 46.9627 103.422 47.1369 103.81 47.488C104.199 47.8392 104.388 48.4067 104.374 49.1933C104.374 49.2635 104.372 49.463 104.366 49.7888C104.361 50.1147 104.358 50.3647 104.358 50.5389C104.358 51.2609 104.407 51.8537 104.509 52.3172H103.482C103.424 51.9885 103.394 51.7525 103.389 51.6121C103.074 52.1655 102.518 52.4436 101.722 52.4436C101.168 52.4436 100.719 52.3032 100.372 52.0194C100.024 51.7357 99.8488 51.3592 99.8488 50.8901V50.8788ZM103.285 49.8647C102.463 49.9434 101.883 50.0529 101.544 50.199C101.204 50.3451 101.034 50.5614 101.034 50.8508C101.034 51.0755 101.119 51.2525 101.289 51.3817C101.459 51.5109 101.683 51.5755 101.968 51.5755C102.39 51.5755 102.713 51.4632 102.943 51.2412C103.173 51.0193 103.285 50.6906 103.285 50.2608V49.8647Z" fill="#F2F2F2"/>
<path d="M106.628 47.8364C106.929 47.2774 107.441 46.9965 108.164 46.9965C109.314 46.9965 109.886 47.6791 109.886 49.0444V52.3088H108.766V49.3225C108.766 49.1624 108.76 49.022 108.747 48.9012C108.733 48.7832 108.708 48.6567 108.67 48.5303C108.632 48.4039 108.58 48.2972 108.514 48.2157C108.448 48.1342 108.355 48.0668 108.232 48.0134C108.109 47.9572 107.967 47.932 107.805 47.932C107.019 47.932 106.628 48.4713 106.628 49.5445V52.3088H105.508V47.1116H106.628V47.8364Z" fill="#F2F2F2"/>
<path d="M110.762 54V53.1207H111.186C111.457 53.1207 111.652 53.0814 111.769 52.9999C111.89 52.9184 112.002 52.7218 112.109 52.4043L112.166 52.2779L110.329 47.1088H111.553L112.703 50.8367L113.853 47.1088H115.003L113.223 52.2976C112.985 52.9802 112.739 53.4353 112.489 53.6601C112.24 53.8848 111.832 53.9972 111.274 53.9972H110.765L110.762 54Z" fill="#F2F2F2"/>
<path d="M50.6636 29.3401C50.6636 28.7614 50.6719 28.1265 50.6883 27.4355C50.7047 26.7444 50.7129 26.0786 50.7129 25.4352C50.7129 24.7919 50.7211 24.2216 50.7376 23.7244C50.754 23.2271 50.7622 22.8816 50.7622 22.6878C50.7622 20.505 50.4802 18.6817 49.9162 17.2181C49.3522 15.7573 48.5692 14.5914 47.5671 13.7233C46.5651 12.8553 45.3906 12.2372 44.0463 11.8692C42.6993 11.5012 41.2455 11.3158 39.6794 11.3158C38.1134 11.3158 36.6185 11.5405 35.288 11.99C33.9574 12.4395 32.7993 13.0576 31.8136 13.8441C30.828 14.6307 30.045 15.5634 29.4646 16.6394C28.8842 17.7153 28.5337 18.8952 28.4078 20.1819H34.4666C34.5296 18.7351 35.0224 17.676 35.945 17.0018C36.8677 16.3276 38.034 15.9904 39.444 15.9904C40.1312 15.9904 40.7746 16.0803 41.3687 16.2545C41.9628 16.4315 42.472 16.7293 42.8937 17.1451C43.3153 17.5636 43.652 18.1171 43.9039 18.8081C44.1531 19.4992 44.279 20.342 44.279 21.3365V21.8197C41.804 22.1091 39.5426 22.463 37.4919 22.8788C35.4413 23.2974 33.6891 23.8424 32.2325 24.5166C30.776 25.1908 29.6508 26.0505 28.8513 27.0955C28.0519 28.1406 27.6549 29.4328 27.6549 30.9751C27.6549 32.1326 27.904 33.1832 28.405 34.13C28.9061 35.0767 29.5714 35.8717 30.4009 36.515C31.2305 37.1584 32.1915 37.6556 33.2893 38.0096C34.3845 38.3636 35.5426 38.5405 36.7637 38.5405C38.6719 38.5405 40.2927 38.2287 41.6233 37.6022C42.9539 36.9758 44.0737 35.9729 44.9799 34.5907C45.0429 35.234 45.114 35.8436 45.1907 36.4223C45.2674 37.0011 45.355 37.4983 45.4481 37.9169H51.4111C51.1592 36.8241 50.973 35.6357 50.8471 34.3519C50.7211 33.0681 50.6582 31.3965 50.6582 29.3401H50.6636ZM44.4652 27.3652C44.4652 29.4862 44.0107 31.124 43.1045 32.2815C42.1955 33.4389 40.7253 34.0148 38.6911 34.0148C37.2181 34.0148 36.123 33.6777 35.4029 33.0034C34.6829 32.3292 34.3242 31.5258 34.3242 30.5931C34.3242 29.888 34.5132 29.284 34.8882 28.7867C35.2633 28.2895 35.8574 27.8709 36.6733 27.5338C37.4864 27.1967 38.535 26.9157 39.8191 26.691C41.1031 26.4662 42.6527 26.2584 44.4679 26.0645V27.3652H44.4652Z" fill="#F2F2F2"/>
<path d="M112.908 16.1674C111.515 14.3835 109.3 13.493 106.264 13.493C104.698 13.493 103.266 13.8301 101.968 14.5043C100.667 15.1786 99.6599 16.1758 98.9399 17.4906V13.4902H92.4594V37.9365H98.9399V24.7638C98.907 24.4436 98.9043 22.081 100.364 20.4797C100.364 20.4797 101.856 18.884 104.153 18.8362C104.492 18.8306 105.492 18.8222 106.384 19.3419C106.962 19.679 107.408 20.1369 107.723 20.7156C108.035 21.2944 108.246 21.9602 108.358 22.7159C108.468 23.4715 108.522 24.2666 108.522 25.1009V37.9337H115.003V23.6542C115.003 20.4431 114.305 17.9429 112.914 16.1618L112.908 16.1674Z" fill="#F2F2F2"/>
<path d="M77.53 0C71.953 0 67.4356 4.63531 67.4356 10.3578C67.4356 10.4758 67.4383 10.5966 67.4466 10.7146V16.7124H63.8326V22.2748H67.4466V37.9393H73.927V22.2748H77.53V16.7124H73.9161C73.9161 13.6306 73.9161 10.3775 73.9188 10.3578C73.9818 8.37447 75.5779 6.7816 77.5273 6.7816C79.4766 6.7816 81.0728 8.37447 81.1385 10.3578H87.6271C87.6271 4.63531 83.1097 0 77.5327 0L77.53 0Z" fill="#BEBEBE"/>
<path d="M57.3494 10.8888C59.1382 10.8888 60.5883 9.40084 60.5883 7.56538C60.5883 5.72993 59.1382 4.242 57.3494 4.242C55.5607 4.242 54.1106 5.72993 54.1106 7.56538C54.1106 9.40084 55.5607 10.8888 57.3494 10.8888Z" fill="#F2F2F2"/>
<path d="M6.9678 13.8807C7.73713 12.4732 8.81583 11.4085 10.2067 10.6865C11.5947 9.96454 13.1252 9.60495 14.8007 9.60495C18.0478 9.60495 20.416 10.5573 21.9054 12.4648C23.3948 14.3723 24.1395 17.0411 24.1395 20.4769V37.9394H17.21V22.022C17.21 21.1286 17.1525 20.2802 17.0348 19.4711C16.9171 18.6649 16.6898 17.9513 16.3558 17.3333C16.0218 16.7152 15.5427 16.2264 14.9239 15.864C14.3052 15.5044 13.5085 15.3218 12.5393 15.3218C11.4004 15.3218 10.4722 15.5466 9.75217 15.9904C9.03212 16.4371 8.46266 17.0299 8.0465 17.7687C7.62762 18.5076 7.34288 19.3756 7.1923 20.3701C7.04172 21.3674 6.96506 22.4125 6.96506 23.5137V37.9394H0.0410767V0.589966H6.97054V13.8807H6.9678Z" fill="#F2F2F2"/>
<path d="M87.6217 13.493H81.1549V37.9393H87.6217V13.493Z" fill="#BEBEBE"/>
<path d="M60.5773 13.493H54.1106V37.9393H60.5773V13.493Z" fill="#F2F2F2"/>
</g>
<defs>
<clipPath id="clip0_26_239">
<rect width="115" height="54" fill="white"/>
</clipPath>
</defs>
</svg>
