<svg width="83" height="74" viewBox="0 0 83 74" fill="none" xmlns="http://www.w3.org/2000/svg">
<g clip-path="url(#clip0_1_116)">
<path d="M5.9372 69.3085H3.15547L2.74369 70.6392H-0.00671387L3.04357 61.8329H6.06476L9.1061 70.6392H6.34898L5.9372 69.3085ZM5.2994 67.231L4.54522 64.7801L3.79775 67.231H5.2994ZM11.7804 65.6735V67.7156H9.91399V65.6735H11.7804ZM17.6259 68.5617V70.6392H16.6255C14.9366 70.6392 14.0922 69.756 14.0922 67.9897V65.6877H13.2798V63.6599H14.0922V61.9676H16.4129V63.6599H17.6147V65.6877H16.4129V68.0275C16.4064 68.1013 16.414 68.1757 16.4351 68.2463C16.4562 68.3169 16.4905 68.3824 16.536 68.4388C16.656 68.5335 16.8053 68.5774 16.9545 68.5617H17.6259ZM25.1721 67.6423H20.8059C20.8054 67.9553 20.9128 68.2577 21.1081 68.4931C21.196 68.5858 21.3009 68.6585 21.4163 68.7069C21.5317 68.7552 21.6553 68.7782 21.7794 68.7744C21.9537 68.7835 22.1265 68.7358 22.2742 68.6377C22.4219 68.5396 22.5375 68.3959 22.6052 68.2261H25.0669C24.9685 68.6994 24.7644 69.141 24.4717 69.5141C24.1688 69.8978 23.7858 70.202 23.3527 70.4028C22.8857 70.6239 22.3785 70.7344 21.8667 70.7266C21.2639 70.738 20.6681 70.5884 20.1346 70.2917C19.6324 70.0063 19.219 69.5738 18.944 69.0462C18.663 68.4567 18.5166 67.8059 18.5166 67.146C18.5166 66.486 18.663 65.8352 18.944 65.2457C19.2186 64.7202 19.6324 64.2907 20.1346 64.0096C20.6745 63.7245 21.2694 63.5749 21.873 63.5725C22.4766 63.57 23.0726 63.7148 23.6145 63.9955C24.1103 64.2719 24.5198 64.6938 24.7939 65.2103C25.0861 65.7807 25.2319 66.422 25.2169 67.0703C25.2142 67.2618 25.1992 67.4529 25.1721 67.6423ZM22.8514 66.4606C22.8585 66.3275 22.8368 66.1945 22.7879 66.0717C22.7391 65.9488 22.6644 65.8393 22.5694 65.7515C22.3712 65.5779 22.1196 65.4871 21.8622 65.4963C21.6115 65.4839 21.3651 65.5679 21.1685 65.7326C20.975 65.9174 20.8497 66.1686 20.8149 66.4416L22.8514 66.4606ZM26.3515 65.2528C26.5733 64.7468 26.9244 64.3163 27.3653 64.0096C27.7918 63.7187 28.2899 63.5667 28.7976 63.5724C29.209 63.5604 29.6165 63.6597 29.9814 63.8608C30.2988 64.0384 30.5636 64.305 30.7468 64.6312V63.6599H33.0563V70.6392H30.7401V69.6701C30.5549 69.9972 30.2877 70.2638 29.968 70.4406C29.607 70.6388 29.2043 70.7371 28.7976 70.7266C28.2901 70.7332 27.792 70.5819 27.3653 70.2917C26.9232 69.9835 26.5719 69.5503 26.3515 69.0415C26.0953 68.4485 25.9683 67.8024 25.98 67.1507C25.9658 66.4965 26.0928 65.8474 26.3515 65.2528ZM30.3932 66.0871C30.2817 65.9664 30.1484 65.8704 30.0012 65.8048C29.854 65.7393 29.6958 65.7055 29.5361 65.7055C29.3763 65.7055 29.2182 65.7393 29.071 65.8048C28.9238 65.8704 28.7905 65.9664 28.6789 66.0871C28.4369 66.3803 28.3139 66.7624 28.3365 67.1507C28.3162 67.5386 28.439 67.9198 28.6789 68.2142C28.7869 68.3413 28.9196 68.4422 29.0679 68.5099C29.2163 68.5776 29.3767 68.6106 29.5383 68.6066C29.6985 68.6097 29.8575 68.5771 30.0048 68.5107C30.1522 68.4443 30.2845 68.3456 30.3932 68.2213C30.6371 67.9262 30.7616 67.5418 30.7401 67.1507C30.7618 66.7617 30.6371 66.3795 30.3932 66.0871ZM45.1724 64.3949C45.6469 64.9243 45.8841 65.6523 45.8841 66.5716V70.6392H43.5768V66.886C43.5857 66.7271 43.5641 66.5679 43.5134 66.4181C43.4626 66.2682 43.3837 66.1307 43.2814 66.0139C43.0573 65.8141 42.7735 65.7045 42.4802 65.7045C42.1869 65.7045 41.9031 65.8141 41.679 66.0139C41.5787 66.1317 41.5019 66.2696 41.453 66.4194C41.4042 66.5692 41.3844 66.7279 41.3948 66.886V70.6297H39.0763V66.886C39.0854 66.7277 39.0645 66.569 39.0149 66.4193C38.9654 66.2696 38.8881 66.1317 38.7876 66.0139C38.6821 65.9079 38.5573 65.8257 38.4207 65.7725C38.284 65.7193 38.1386 65.696 37.9932 65.7042C37.8447 65.6961 37.6962 65.7193 37.5564 65.7725C37.4165 65.8256 37.2881 65.9077 37.1786 66.0139C37.0767 66.1309 36.9982 66.2685 36.9478 66.4184C36.8974 66.5682 36.8762 66.7273 36.8854 66.886V70.6297H34.5759V63.6599H36.8854V64.5816C37.0931 64.2819 37.3654 64.0388 37.6799 63.8726C38.0273 63.6903 38.411 63.5988 38.7988 63.6055C39.2524 63.5966 39.7005 63.7123 40.0991 63.9411C40.4749 64.1621 40.7849 64.4895 40.9942 64.8865C41.2308 64.5043 41.5499 64.1868 41.9252 63.96C42.311 63.7233 42.7502 63.6008 43.1963 63.6055C44.0378 63.6008 44.6965 63.8639 45.1724 64.3949ZM51.7295 64.0947C52.1197 64.3219 52.4433 64.658 52.665 65.0661V63.8135H53.7481V70.781C53.7575 71.3572 53.6281 71.9264 53.3722 72.4354C53.1244 72.9173 52.7498 73.3129 52.2935 73.5746C51.7924 73.858 51.2303 73.9997 50.662 73.9858C49.9099 74.0144 49.1683 73.7919 48.5427 73.3501C48.2697 73.1525 48.0392 72.8963 47.8664 72.5981C47.6937 72.3 47.5825 71.9667 47.5401 71.62H48.6009C48.7207 72.0372 48.9811 72.3937 49.3327 72.6221C49.7308 72.8842 50.1931 73.0166 50.662 73.0026C50.9277 73.0131 51.1926 72.9666 51.4407 72.8658C51.6888 72.7651 51.915 72.6122 52.1055 72.4165C52.2996 72.1978 52.4494 71.9394 52.5456 71.6574C52.6418 71.3753 52.6824 71.0755 52.665 70.7762V69.344C52.4392 69.7574 52.1143 70.1006 51.7228 70.339C51.2804 70.6132 50.7743 70.7516 50.2615 70.7384C49.7111 70.7457 49.1699 70.5896 48.6995 70.2879C48.229 69.9862 47.8483 69.5511 47.6006 69.032C47.3257 68.4624 47.1882 67.83 47.2 67.1909C47.1863 66.5538 47.324 65.9232 47.6006 65.3568C47.8508 64.8472 48.2326 64.4227 48.7016 64.1325C49.1763 63.8387 49.718 63.6875 50.2682 63.6953C50.7802 63.6894 51.2845 63.8273 51.7295 64.0947ZM52.3718 65.8744C52.189 65.5093 51.913 65.2056 51.5751 64.9976C51.24 64.7984 50.862 64.6937 50.4774 64.6937C50.0929 64.6937 49.7148 64.7984 49.3797 64.9976C49.0437 65.2026 48.7697 65.5042 48.5897 65.8673C48.3854 66.2812 48.2837 66.7431 48.2943 67.2098C48.2834 67.6833 48.385 68.1521 48.5897 68.5735C48.7692 68.9406 49.043 69.247 49.3797 69.4574C49.7118 69.6615 50.0899 69.7669 50.4741 69.7623C50.8603 69.7663 51.2404 69.661 51.5751 69.4574C51.9142 69.2479 52.1904 68.9415 52.3718 68.5735C52.5736 68.1561 52.6743 67.6925 52.665 67.224C52.6759 66.7553 52.5751 66.2912 52.3718 65.8744ZM56.6351 61.4335V70.6392H55.5631V61.4335H56.6351ZM59.6339 70.3154C59.1444 70.0292 58.7435 69.6 58.4791 69.0793C58.191 68.5073 58.0469 67.8669 58.0606 67.2192C58.0482 66.5741 58.1964 65.9367 58.4903 65.371C58.7628 64.8515 59.1695 64.4245 59.663 64.1396C60.1754 63.8564 60.7451 63.7084 61.3235 63.7084C61.9019 63.7084 62.4716 63.8564 62.984 64.1396C63.4762 64.4231 63.8827 64.8474 64.1567 65.3639C64.4426 65.9366 64.5921 66.5742 64.5921 67.2216C64.5921 67.869 64.4426 68.5066 64.1567 69.0793C63.8744 69.601 63.4597 70.0291 62.9594 70.3154C62.4467 70.6095 61.8712 70.7601 61.2877 70.7526C60.7097 70.7624 60.1393 70.6116 59.6339 70.3154ZM62.3597 69.4716C62.7047 69.2732 62.9889 68.9747 63.1787 68.6113C63.3978 68.1847 63.5059 67.7043 63.492 67.2192C63.5058 66.7342 63.4002 66.2537 63.1854 65.8248C63.0012 65.4659 62.7231 65.1705 62.3843 64.9739C62.0528 64.7893 61.6837 64.6928 61.3089 64.6928C60.9342 64.6928 60.5651 64.7893 60.2336 64.9739C59.899 65.17 59.6265 65.466 59.4504 65.8248C59.2426 66.256 59.141 66.7356 59.1549 67.2192C59.1404 67.7059 59.2396 68.1889 59.4436 68.6255C59.6156 68.9836 59.8843 69.2797 60.2157 69.4763C60.5408 69.6642 60.906 69.761 61.2765 69.7576C61.6544 69.7585 62.0266 69.6602 62.3597 69.4716ZM68.0373 64.0947C68.4802 63.8339 68.9804 63.7011 69.4874 63.7095C70.0376 63.7014 70.5794 63.8526 71.054 64.1467C71.5201 64.4386 71.8993 64.8627 72.1483 65.371C72.4249 65.9374 72.5626 66.568 72.5489 67.205C72.5607 67.8442 72.4231 68.4766 72.1483 69.0462C71.9006 69.5653 71.5199 70.0004 71.0494 70.3021C70.579 70.6038 70.0378 70.7599 69.4874 70.7526C68.9741 70.7641 68.4672 70.6303 68.0194 70.365C67.6248 70.1357 67.2974 69.7964 67.0727 69.3842V70.6392H66.0119V61.4335H67.0839V65.0921C67.3114 64.6755 67.6406 64.331 68.0373 64.0947ZM71.1592 65.8626C70.9788 65.4982 70.703 65.1963 70.3647 64.9928C70.0293 64.7918 69.6493 64.6882 69.2636 64.6927C68.8811 64.6896 68.5047 64.7949 68.1738 64.9976C67.8339 65.2075 67.5563 65.5137 67.3726 65.8815C67.1659 66.293 67.0627 66.7536 67.0727 67.2192C67.062 67.6887 67.1652 68.1533 67.3726 68.5688C67.5563 68.9366 67.8339 69.2428 68.1738 69.4527C68.5047 69.6554 68.8811 69.7607 69.2636 69.7576C69.6498 69.7615 70.03 69.6563 70.3647 69.4527C70.7037 69.2437 70.9792 68.9371 71.1592 68.5688C71.3639 68.1474 71.4655 67.6785 71.4546 67.205C71.4651 66.7384 71.3635 66.2765 71.1592 65.8626ZM73.9633 65.371C74.2135 64.8614 74.5953 64.4369 75.0643 64.1467C75.539 63.8529 76.0807 63.7018 76.6309 63.7095C77.1455 63.697 77.6539 63.83 78.1034 64.0947C78.4911 64.3239 78.8128 64.6595 79.0344 65.0661V63.8135H80.1108V70.6297H79.0277V69.3605C78.8004 69.7739 78.4729 70.1157 78.0788 70.3508C77.6319 70.619 77.1246 70.7545 76.6107 70.7432C76.0633 70.7508 75.525 70.5951 75.0576 70.2941C74.5884 69.9909 74.2087 69.5554 73.961 69.0367C73.6872 68.4667 73.5497 67.8346 73.5604 67.1956C73.55 66.5616 73.6884 65.9348 73.9633 65.371ZM78.7345 65.8744C78.5528 65.5086 78.2775 65.204 77.9401 64.9952C77.6045 64.7919 77.2236 64.6866 76.8368 64.6903C76.4531 64.6853 76.0752 64.7889 75.7424 64.9905C75.4069 65.1962 75.1331 65.4977 74.9524 65.8602C74.7489 66.2744 74.648 66.7362 74.6593 67.2027C74.6477 67.676 74.7485 68.1448 74.9524 68.5664C75.1326 68.933 75.4063 69.2392 75.7424 69.4503C76.0745 69.6544 76.4526 69.7598 76.8368 69.7552C77.2236 69.7589 77.6045 69.6537 77.9401 69.4503C78.2785 69.2408 78.554 68.9343 78.7345 68.5664C78.9383 68.1497 79.0399 67.6857 79.0299 67.2169C79.0401 66.7502 78.9385 66.2885 78.7345 65.8744ZM82.9978 61.4335V70.6392H81.9258V61.4335H82.9978Z" fill="#D6D6D6"/>
<path d="M36.4222 13.9184L47.9206 25.9981C48.8933 27.0212 50.2102 27.5957 51.583 27.5957C52.9558 27.5957 54.2727 27.0212 55.2453 25.9981L68.9481 11.5455V0L55.2453 14.4526C54.273 15.4763 52.956 16.0511 51.583 16.0511C50.21 16.0511 48.893 15.4763 47.9206 14.4526L36.4222 2.37528C35.4682 1.37221 34.1822 0.800289 32.8361 0.780441C31.4901 0.760593 30.1895 1.29438 29.2094 2.26892L14.0497 17.3384V28.8791L29.2094 13.8121C30.1895 12.8375 31.4901 12.3037 32.8361 12.3236C34.1822 12.3434 35.4682 12.9154 36.4222 13.9184Z" fill="#FDFDFD"/>
<path d="M47.9206 25.9981L36.4222 13.9184C35.4682 12.9154 34.1822 12.3434 32.8361 12.3236C31.4901 12.3037 30.1895 12.8375 29.2094 13.8121L14.0497 28.8791V40.3727L29.2094 25.3056C30.1895 24.331 31.4901 23.7973 32.8361 23.8171C34.1822 23.837 35.4682 24.4089 36.4222 25.4119L47.9206 37.494C48.893 38.5177 50.21 39.0925 51.583 39.0925C52.956 39.0925 54.273 38.5177 55.2453 37.494L68.9481 23.0414V11.5432L55.2453 25.9981C54.2727 27.0212 52.9558 27.5957 51.583 27.5957C50.2102 27.5957 48.8933 27.0212 47.9206 25.9981Z" fill="#E5E5E5"/>
<path d="M55.2453 37.4869C54.273 38.5106 52.956 39.0854 51.583 39.0854C50.21 39.0854 48.893 38.5106 47.9206 37.4869L36.4222 25.4049C35.4682 24.4018 34.1822 23.8299 32.8361 23.81C31.4901 23.7902 30.1895 24.324 29.2094 25.2985L14.0497 40.3727V54.2367L21.6206 46.4917H44.0468L46.9896 49.6587C47.6145 50.328 48.3605 50.8577 49.1832 51.2163C50.006 51.5748 50.8886 51.7547 51.7786 51.7455C52.6686 51.7362 53.5477 51.5379 54.3636 51.1623C55.1794 50.7868 55.9154 50.2417 56.5277 49.5594L68.9392 35.7308V23.0343L55.2453 37.4869ZM27.56 39.7889L31.6711 35.0265C31.8316 34.841 32.0278 34.6938 32.2465 34.5948C32.4652 34.4958 32.7014 34.4473 32.9393 34.4524C33.1772 34.4575 33.4114 34.5163 33.6261 34.6247C33.8407 34.733 34.0311 34.8886 34.1843 35.0809L37.9373 39.7889H27.56Z" fill="#C4C4C4"/>
<path d="M31.671 35.0265L27.5599 39.7889H37.9372L34.1842 35.0809C34.031 34.8886 33.8407 34.733 33.626 34.6247C33.4113 34.5163 33.1772 34.4575 32.9392 34.4524C32.7013 34.4473 32.4651 34.4958 32.2464 34.5948C32.0277 34.6938 31.8315 34.841 31.671 35.0265Z" fill="#D6D6D6"/>
</g>
<defs>
<clipPath id="clip0_1_116">
<rect width="83" height="74" fill="white"/>
</clipPath>
</defs>
</svg>
