<svg width="44" height="63" viewBox="0 0 44 63" fill="none" xmlns="http://www.w3.org/2000/svg">
<g clip-path="url(#clip0_102_1938)">
<path d="M0.0262687 0.11392V5.92466C0.111642 5.93137 0.229851 5.93807 0.367761 5.95147C0.505672 5.95818 0.656716 5.96488 0.814328 5.96488C0.97194 5.96488 1.13612 5.96488 1.3003 5.96488C1.46448 5.96488 1.62209 5.96488 1.77313 5.96488C2.10149 5.96488 2.41015 5.93137 2.69254 5.85764C2.97493 5.78392 3.21791 5.67669 3.42806 5.52254C3.63821 5.37509 3.80239 5.18743 3.91403 4.96626C4.02567 4.74509 4.09134 4.4703 4.09134 4.162C4.09134 3.96764 4.06507 3.80009 4.01254 3.65264C3.95343 3.5052 3.88119 3.37786 3.80239 3.27062C3.72358 3.16339 3.62507 3.06956 3.52 2.99583C3.41493 2.92211 3.30985 2.86179 3.19821 2.82158V2.80147C3.42806 2.66073 3.59881 2.48647 3.72358 2.27871C3.84836 2.07094 3.90746 1.80956 3.90746 1.50126C3.90746 1.3002 3.87463 1.11254 3.79582 0.931579C3.71702 0.757324 3.59224 0.609877 3.42806 0.475835C3.26388 0.341792 3.05373 0.24126 2.79104 0.167537C2.52836 0.0938134 2.21313 0.0603027 1.85194 0.0603027C1.68776 0.0603027 1.51045 0.0603027 1.32657 0.0603027C1.14269 0.0603027 0.965373 0.0670049 0.801194 0.073707C0.637015 0.0804091 0.479403 0.0871112 0.341493 0.100516C0.203582 0.107218 0.0853731 0.11392 0 0.127324L0.0262687 0.11392ZM1.39881 3.58562H1.93731C2.16716 3.58562 2.34448 3.62583 2.47582 3.71296C2.60716 3.80009 2.6794 3.92743 2.6794 4.11509C2.6794 4.30945 2.60716 4.4569 2.47582 4.56413C2.34448 4.67137 2.1409 4.73169 1.87164 4.73169C1.7403 4.73169 1.63522 4.72498 1.56299 4.71158C1.50388 4.70488 1.43821 4.69818 1.39881 4.69147V3.58562ZM1.83224 1.33371C1.99642 1.33371 2.15403 1.37392 2.29194 1.46105C2.43642 1.54147 2.50209 1.67552 2.50209 1.84977C2.50209 2.05754 2.44299 2.20498 2.31821 2.29211C2.19343 2.37254 2.03582 2.41945 1.85851 2.41945H1.39881V1.36052C1.47761 1.35381 1.54328 1.34041 1.60239 1.33371C1.66149 1.327 1.73373 1.327 1.8191 1.327L1.83224 1.33371Z" fill="#F2F2F2"/>
<path d="M6.54745 0.100525V5.93808H7.94626V0.100525H6.54745Z" fill="#F2F2F2"/>
<path d="M10.6519 0.100525V5.93808H14.5331V4.69148H12.0442V0.100525H10.6519Z" fill="#F2F2F2"/>
<path d="M15.8006 3.02266C15.8006 3.49181 15.8794 3.90734 16.0436 4.28266C16.2078 4.65798 16.4376 4.97298 16.7266 5.23436C17.0155 5.49575 17.357 5.69011 17.7445 5.83755C18.1385 5.9783 18.5654 6.04532 19.0251 6.04532C19.4848 6.04532 19.9182 5.9716 20.3057 5.81745C20.6997 5.67 21.0412 5.45553 21.3236 5.19415C21.6126 4.92606 21.8358 4.61106 22.0066 4.24245C22.1708 3.87383 22.2496 3.465 22.2496 3.02266C22.2496 2.55351 22.1708 2.13798 22.0066 1.76266C21.8424 1.38734 21.6126 1.07234 21.3236 0.810957C21.0346 0.549575 20.6931 0.355213 20.3057 0.207766C19.9248 0.0670213 19.4914 0 19.0317 0C18.5457 0 18.0991 0.0737234 17.6985 0.234574C17.2979 0.395426 16.9564 0.609894 16.6806 0.884681C16.3982 1.15947 16.1815 1.47447 16.0239 1.84309C15.8663 2.2117 15.7875 2.60043 15.7875 3.02936L15.8006 3.02266ZM17.2717 3.02936C17.2717 2.76128 17.3176 2.52 17.403 2.30553C17.4884 2.09106 17.6131 1.9034 17.7708 1.74926C17.9284 1.5884 18.1123 1.47447 18.329 1.38734C18.5457 1.30021 18.7821 1.26 19.0382 1.26C19.2812 1.26 19.5111 1.30021 19.7278 1.38734C19.9445 1.46777 20.1284 1.5884 20.286 1.74926C20.4436 1.91011 20.5684 2.09106 20.6537 2.30553C20.7391 2.52 20.7851 2.76128 20.7851 3.02936C20.7851 3.27064 20.7523 3.50521 20.6734 3.71968C20.5946 3.93415 20.483 4.12851 20.332 4.28936C20.1809 4.45021 20.0036 4.57085 19.7803 4.66468C19.5636 4.75851 19.3075 4.80543 19.0185 4.80543C18.7755 4.80543 18.5457 4.76521 18.329 4.67138C18.1123 4.57755 17.9284 4.45691 17.7708 4.29606C17.6131 4.13521 17.4884 3.95426 17.3964 3.73979C17.2979 3.52532 17.2585 3.29075 17.2585 3.03606L17.2717 3.02936Z" fill="#F2F2F2"/>
<path d="M23.9504 0.100525V1.35382H26.794L23.7731 5.00648V5.93808H28.7445V4.69148H25.6316L28.6591 1.03882V0.100525H23.9504Z" fill="#F2F2F2"/>
<path d="M30.2352 3.02266C30.2352 3.49181 30.314 3.90734 30.4782 4.28266C30.6424 4.65798 30.8722 4.97298 31.1612 5.23436C31.4501 5.49575 31.7916 5.69011 32.1791 5.83755C32.5731 5.9783 33 6.04532 33.4597 6.04532C33.9194 6.04532 34.3528 5.9716 34.7403 5.81745C35.1343 5.67 35.4758 5.45553 35.7582 5.19415C36.0472 4.92606 36.2704 4.61106 36.4412 4.24245C36.6054 3.87383 36.6842 3.465 36.6842 3.02266C36.6842 2.55351 36.6054 2.13798 36.4412 1.76266C36.277 1.38734 36.0472 1.07234 35.7582 0.810957C35.4692 0.549575 35.1277 0.355213 34.7403 0.207766C34.3528 0.0670213 33.926 0 33.4663 0C32.9803 0 32.5337 0.0737234 32.1331 0.234574C31.7325 0.395426 31.391 0.609894 31.1152 0.884681C30.8328 1.15947 30.6161 1.47447 30.4585 1.84309C30.3009 2.2117 30.2221 2.60043 30.2221 3.02936L30.2352 3.02266ZM31.7063 3.02936C31.7063 2.76128 31.7522 2.52 31.8376 2.30553C31.923 2.09106 32.0477 1.9034 32.2054 1.74926C32.363 1.5884 32.5469 1.47447 32.7636 1.38734C32.9803 1.30021 33.2167 1.26 33.4728 1.26C33.7158 1.26 33.9457 1.30021 34.1624 1.38734C34.3791 1.46777 34.563 1.5884 34.7206 1.74926C34.8782 1.91011 35.003 2.09106 35.0883 2.30553C35.1737 2.52 35.2197 2.76128 35.2197 3.02936C35.2197 3.27064 35.1869 3.50521 35.108 3.71968C35.0292 3.93415 34.9176 4.12851 34.7666 4.28936C34.6155 4.45021 34.4382 4.57085 34.2149 4.66468C33.9982 4.75851 33.7421 4.80543 33.4531 4.80543C33.2101 4.80543 32.9803 4.76521 32.7636 4.67138C32.5469 4.57755 32.363 4.45691 32.2054 4.29606C32.0477 4.13521 31.923 3.95426 31.831 3.73979C31.7325 3.52532 31.6931 3.29075 31.6931 3.03606L31.7063 3.02936Z" fill="#F2F2F2"/>
<path d="M38.9104 5.93809H40.3092V3.89394H40.8215L42.3057 5.93809H44L42.2203 3.63256C42.2991 3.59235 42.3976 3.53203 42.5158 3.4583C42.6406 3.38458 42.7522 3.27735 42.8573 3.1433C42.9624 3.00926 43.0478 2.84171 43.1266 2.64735C43.2054 2.45299 43.2382 2.22511 43.2382 1.94362C43.2382 1.67554 43.1922 1.42756 43.1134 1.19969C43.0346 0.971816 42.9033 0.777454 42.7194 0.609901C42.5355 0.442347 42.2991 0.308305 42.0101 0.214475C41.7212 0.120645 41.3731 0.0737305 40.9528 0.0737305H40.7624C40.6639 0.0737305 40.5522 0.0737305 40.4209 0.0737305C40.2895 0.0737305 40.1385 0.0737305 39.9875 0.0737305C39.8298 0.0737305 39.6788 0.0737305 39.5409 0.0737305C39.403 0.0737305 39.2716 0.0737305 39.16 0.0737305H38.8973L38.9104 5.93809ZM40.9134 1.32033C41.0776 1.32033 41.2221 1.34043 41.3272 1.37394C41.4322 1.40745 41.5176 1.45437 41.5833 1.51469C41.6424 1.57501 41.6884 1.64203 41.7146 1.71575C41.7409 1.78948 41.7475 1.8766 41.7475 1.95703C41.7475 2.1983 41.649 2.37256 41.4651 2.47309C41.2812 2.57362 41.0579 2.62054 40.7821 2.62054H40.2764V1.32703C40.4275 1.32033 40.5391 1.32033 40.6179 1.32033C40.6967 1.32033 40.7821 1.32033 40.8872 1.32033H40.9134Z" fill="#F2F2F2"/>
<path d="M0.0131343 62.9129H0.669851V60.9827C0.801194 60.9894 0.939104 60.9961 1.08358 61.0028C1.22806 61.0095 1.3594 61.0095 1.47104 61.0095C1.7994 61.0095 2.08836 60.9693 2.33134 60.8821C2.5809 60.795 2.77791 60.6811 2.94209 60.5403C3.10627 60.3996 3.21791 60.232 3.29672 60.0444C3.37552 59.8567 3.41493 59.6623 3.41493 59.4546C3.41493 59.2602 3.38209 59.0658 3.32298 58.8782C3.26388 58.6905 3.15224 58.5297 3.00119 58.3822C2.85015 58.2415 2.64 58.1276 2.38388 58.0404C2.12776 57.9533 1.80597 57.9131 1.41851 57.9131C1.33313 57.9131 1.22806 57.9131 1.09672 57.9131C0.965373 57.9131 0.83403 57.9131 0.696119 57.9131C0.558209 57.9131 0.426866 57.9131 0.30209 57.9131C0.177313 57.9131 0.078806 57.9131 0 57.9131L0.0131343 62.9129ZM1.47104 58.4761C1.90448 58.4761 2.2197 58.5632 2.41672 58.7374C2.6203 58.9117 2.71881 59.1463 2.71881 59.4479C2.71881 59.7629 2.6006 60.0175 2.37731 60.1918C2.15403 60.3728 1.83881 60.4666 1.43821 60.4666C1.30687 60.4666 1.17552 60.4666 1.04418 60.4599C0.912836 60.4532 0.781493 60.4465 0.650149 60.4398V58.5029C0.781493 58.4962 0.919403 58.4962 1.07701 58.4962C1.22806 58.4962 1.3594 58.4962 1.47104 58.4962V58.4761Z" fill="#F2F2F2"/>
<path d="M6.69852 62.9129H7.35524V60.9022H8.23524L9.89017 62.9129H10.6914L8.89196 60.7883C9.03643 60.7548 9.18748 60.6945 9.32539 60.614C9.4633 60.5336 9.58808 60.4331 9.69315 60.3124C9.79822 60.1918 9.8836 60.0578 9.95584 59.8969C10.0281 59.7361 10.0543 59.5618 10.0543 59.3675C10.0543 59.1664 10.0215 58.972 9.9624 58.7911C9.9033 58.6101 9.79166 58.456 9.64718 58.3152C9.5027 58.1812 9.29912 58.0739 9.05613 57.9935C8.80658 57.9131 8.49793 57.8796 8.13016 57.8796C8.09076 57.8796 8.00539 57.8796 7.88061 57.8796C7.75584 57.8796 7.61793 57.8796 7.46688 57.8796C7.31584 57.8796 7.16479 57.8796 7.02031 57.8796C6.87584 57.8796 6.76419 57.8796 6.69196 57.8796L6.69852 62.9129ZM8.1039 58.4426C8.34031 58.4426 8.5439 58.4627 8.70808 58.5163C8.87225 58.5632 9.0036 58.6302 9.1021 58.7173C9.20061 58.8045 9.27285 58.905 9.31225 59.0189C9.35166 59.1329 9.37136 59.2535 9.37136 59.3876C9.37136 59.535 9.33196 59.6757 9.26628 59.7897C9.19405 59.9036 9.1021 60.0042 8.99046 60.0913C8.87225 60.1784 8.74091 60.2454 8.59643 60.2856C8.45196 60.3326 8.29434 60.3527 8.1433 60.3527H7.34867V58.4895C7.48002 58.4828 7.61793 58.4828 7.7624 58.4828C7.90688 58.4828 8.02509 58.4828 8.11046 58.4828V58.4426H8.1039Z" fill="#F2F2F2"/>
<path d="M13.1015 60.4062C13.1015 60.7883 13.1737 61.1368 13.3116 61.4518C13.4495 61.7668 13.64 62.0416 13.8895 62.2694C14.1391 62.4973 14.4281 62.6783 14.7695 62.8056C15.1045 62.9329 15.4657 63 15.8597 63C16.2537 63 16.6149 62.9329 16.9564 62.8056C17.2979 62.6783 17.5869 62.4973 17.8364 62.2694C18.086 62.0416 18.2764 61.7668 18.4143 61.4518C18.5522 61.1368 18.6245 60.795 18.6245 60.4197C18.6245 60.0376 18.5522 59.6891 18.4143 59.3741C18.2764 59.0591 18.086 58.7843 17.8364 58.5565C17.5869 58.3286 17.2979 58.1476 16.9564 58.0203C16.6149 57.8929 16.2537 57.8259 15.8597 57.8259C15.4591 57.8259 15.0913 57.8929 14.7498 58.0203C14.4084 58.1476 14.1194 58.3286 13.8698 58.5565C13.6203 58.7843 13.4298 59.0591 13.2919 59.3741C13.154 59.6891 13.0818 60.0242 13.0818 60.3928L13.1015 60.4062ZM13.7779 60.3928C13.7779 60.098 13.8304 59.8299 13.9421 59.5886C14.0472 59.3473 14.1982 59.1395 14.3821 58.9586C14.566 58.7776 14.7827 58.6436 15.0388 58.5431C15.2949 58.4425 15.5642 58.3889 15.8531 58.3889C16.1355 58.3889 16.4113 58.4425 16.6609 58.5431C16.917 58.6436 17.1337 58.7776 17.3176 58.9586C17.5015 59.1395 17.646 59.354 17.7576 59.5953C17.8627 59.8366 17.9218 60.1114 17.9218 60.4062C17.9218 60.6877 17.8758 60.9491 17.7773 61.1971C17.6788 61.4384 17.5409 61.6528 17.3504 61.8338C17.1666 62.0148 16.9498 62.1555 16.6937 62.256C16.4376 62.3566 16.1618 62.4102 15.8531 62.4102C15.5707 62.4102 15.2949 62.3566 15.0454 62.256C14.7892 62.1555 14.5725 62.0148 14.3887 61.8338C14.2048 61.6528 14.0603 61.4451 13.9487 61.2038C13.8436 60.9625 13.7845 60.6944 13.7845 60.4062L13.7779 60.3928Z" fill="#F2F2F2"/>
<path d="M22.9391 61.7735V57.8929H22.2824V61.6729C22.2824 61.8874 22.2364 62.0684 22.1511 62.2024C22.0657 62.3365 21.9015 62.4102 21.6651 62.4102C21.5666 62.4102 21.4746 62.3968 21.3827 62.37C21.2908 62.3432 21.212 62.3029 21.1528 62.2627L20.9296 62.7252C21.0018 62.7922 21.1069 62.8525 21.2514 62.9128C21.3958 62.9732 21.56 63 21.7373 63C22.1511 63 22.4531 62.8927 22.637 62.6783C22.8209 62.4638 22.9128 62.1689 22.9128 61.7869L22.9391 61.7735Z" fill="#F2F2F2"/>
<path d="M26.643 57.893V62.9129H29.7689V62.3365H27.2997V60.6543H29.4603V60.0779H27.2997V58.456H29.6901V57.8796H26.643V57.893Z" fill="#F2F2F2"/>
<path d="M37.1767 62.4236L36.914 61.9679C36.7302 62.1019 36.52 62.2091 36.2836 62.2896C36.0472 62.37 35.7976 62.4102 35.5349 62.4102C35.2197 62.4102 34.9308 62.3633 34.6812 62.2628C34.4251 62.1622 34.2018 62.0282 34.0179 61.8539C33.834 61.6797 33.6896 61.4719 33.5845 61.2306C33.486 60.9894 33.4334 60.7146 33.4334 60.413C33.4334 60.1181 33.4794 59.8433 33.5779 59.602C33.6764 59.3607 33.8143 59.153 33.9916 58.972C34.169 58.7911 34.3791 58.657 34.6221 58.5565C34.8717 58.456 35.1409 58.409 35.4299 58.409C35.7122 58.409 35.9618 58.4358 36.1785 58.5029C36.3952 58.5699 36.5857 58.6637 36.763 58.7844L37.0651 58.3286C36.8746 58.1812 36.6317 58.0538 36.3558 57.9667C36.08 57.8796 35.7648 57.8394 35.4167 57.8394C34.9899 57.8394 34.6155 57.9064 34.2806 58.0404C33.9522 58.1745 33.6633 58.3621 33.4334 58.59C33.2036 58.8179 33.0263 59.0927 32.9015 59.4077C32.7767 59.7227 32.7176 60.0578 32.7176 60.4197C32.7176 60.8151 32.7899 61.1703 32.9212 61.4853C33.0525 61.8003 33.2364 62.0751 33.4794 62.2963C33.7158 62.5174 34.0048 62.6917 34.3331 62.8123C34.6615 62.933 35.0358 63 35.443 63C35.6137 63 35.7845 62.9866 35.9421 62.9598C36.0997 62.933 36.2573 62.8928 36.4018 62.8458C36.5463 62.7922 36.6842 62.7386 36.809 62.6649C36.9337 62.5912 37.0388 62.5174 37.1308 62.4303L37.1767 62.4236Z" fill="#F2F2F2"/>
<path d="M39.5672 57.8929V58.4693H41.4585V62.9195H42.1152V58.4693H44V57.8929H39.5672Z" fill="#F2F2F2"/>
<path d="M0 30.0925H1.69433V54.2604H0V30.0925Z" fill="#F2F2F2"/>
<path d="M7.94444 29.8421C11.5623 29.8421 14.4892 32.722 14.4892 36.282C14.4892 38.2553 13.5881 40.0152 12.1721 41.2019C15.0108 41.9085 17.1111 44.4351 17.1111 47.4417C17.1111 50.995 14.1775 53.8816 10.5664 53.8816H4.88889V52.1616H10.5664C13.2154 52.1616 15.3699 50.0483 15.3699 47.4417C15.3699 44.8351 13.2222 42.7218 10.5664 42.7218H4.88889V41.0085H7.94444C10.5935 41.0085 12.748 38.8952 12.748 36.2886C12.748 33.682 10.6003 31.5687 7.94444 31.5687H4.88889V29.8421H7.94444Z" fill="#F2F2F2"/>
<path fill-rule="evenodd" clip-rule="evenodd" d="M0 9.11841H44V53.8816H21.1528V52.1568H41.1104L1.69433 12.0598V20.3092H0V9.11841ZM2.88955 10.8365H41.1104L22 30.2833L2.88955 10.8365ZM32.1528 32.3624H24.0424L32.1528 40.6117V32.3624ZM33.8472 40.6117V32.3624H41.9576L33.8472 40.6117ZM42.3057 41.8284H35.0424L42.3057 34.4347V41.8284ZM35.0424 43.5532H42.3057V50.9468L35.0424 43.5532ZM24.0424 30.6376H41.9576L33 21.5259L24.0424 30.6376ZM42.3057 12.0598V28.5652L34.1952 20.3092L42.3057 12.0598Z" fill="#F2F2F2"/>
</g>
<defs>
<clipPath id="clip0_102_1938">
<rect width="44" height="63" fill="white"/>
</clipPath>
</defs>
</svg>
