<svg width="36" height="36" viewBox="0 0 36 36" fill="none" xmlns="http://www.w3.org/2000/svg">
<path d="M8 3C5.2469 3 3 5.2469 3 8V28C3 30.7531 5.2469 33 8 33H28C30.7531 33 33 30.7531 33 28V8C33 5.2469 30.7531 3 28 3H8ZM8 4.42857H28C29.9812 4.42857 31.5714 6.01881 31.5714 8V28C31.5714 29.9812 29.9812 31.5714 28 31.5714H8C6.01881 31.5714 4.42857 29.9812 4.42857 28V8C4.42857 6.01881 6.01881 4.42857 8 4.42857ZM9.48996 9.42857L16.0776 18.7882L9.42857 26.5714H11.2143L16.8839 19.9336L21.5547 26.5714H27.2243L19.9922 16.2952L25.8571 9.42857H24.0714L19.1858 15.1498L15.1596 9.42857H9.48996ZM12.2243 10.8571H14.4132L24.49 25.1429H22.3011L12.2243 10.8571Z" fill="#F2F2F2"/>
</svg>
