<svg width="35" height="36" viewBox="0 0 35 36" fill="none" xmlns="http://www.w3.org/2000/svg">
<path d="M10.4545 2C5.24181 2 1 6.24181 1 11.4545V24.5455C1 29.7582 5.24181 34 10.4545 34H23.5455C28.7582 34 33 29.7582 33 24.5455V11.4545C33 6.24181 28.7582 2 23.5455 2H10.4545ZM10.4545 3.45455H23.5455C27.972 3.45455 31.5455 7.02801 31.5455 11.4545V24.5455C31.5455 28.972 27.972 32.5455 23.5455 32.5455H10.4545C6.02801 32.5455 2.45455 28.972 2.45455 24.5455V11.4545C2.45455 7.02801 6.02801 3.45455 10.4545 3.45455ZM25.7273 7.81818C25.3415 7.81818 24.9715 7.97143 24.6988 8.24421C24.426 8.51699 24.2727 8.88696 24.2727 9.27273C24.2727 9.6585 24.426 10.0285 24.6988 10.3012C24.9715 10.574 25.3415 10.7273 25.7273 10.7273C26.113 10.7273 26.483 10.574 26.7558 10.3012C27.0286 10.0285 27.1818 9.6585 27.1818 9.27273C27.1818 8.88696 27.0286 8.51699 26.7558 8.24421C26.483 7.97143 26.113 7.81818 25.7273 7.81818ZM17 10C12.5903 10 9 13.5903 9 18C9 22.4097 12.5903 26 17 26C21.4097 26 25 22.4097 25 18C25 13.5903 21.4097 10 17 10ZM17 11.4545C20.6236 11.4545 23.5455 14.3764 23.5455 18C23.5455 21.6236 20.6236 24.5455 17 24.5455C13.3764 24.5455 10.4545 21.6236 10.4545 18C10.4545 14.3764 13.3764 11.4545 17 11.4545Z" fill="#F2F2F2"/>
</svg>
