<svg width="194" height="28" viewBox="0 0 194 28" fill="none" xmlns="http://www.w3.org/2000/svg">
<g clip-path="url(#clip0_102_1920)">
<path d="M24.4773 6.32653C24.6103 6.53061 24.2999 6.73469 24.1225 6.57142C22.5705 4.97959 20.309 4 17.7815 4C13.0368 4 9.17898 7.55102 9.17898 11.9184C9.17898 15.7143 12.1056 18.9388 16.0078 19.6735C16.1852 19.7143 16.1408 19.9592 15.9634 19.9592C15.8304 19.9592 15.6974 19.9592 15.5644 19.9592C10.2876 19.7959 6.07498 15.7551 6.07498 10.8571C6.07498 5.87755 10.5093 1.83673 15.9191 1.83673C19.5996 1.83673 22.7479 3.63265 24.4773 6.32653Z" fill="#F2F2F2"/>
<path d="M30.0201 12.4082C30.0201 18.898 24.2999 24.1633 17.2494 24.1633C10.1989 24.1633 4.47864 18.898 4.47864 12.4082C4.47864 11.7959 4.52298 11.1837 4.61167 10.6123C4.61167 10.5306 4.78904 10.5306 4.78904 10.6123C4.78904 16.4082 9.88847 21.1021 16.1852 21.1021C22.4818 21.1021 27.5813 16.4082 27.5813 10.6123C27.5813 7.42859 26.0293 4.57144 23.6348 2.65308C23.4574 2.48981 23.6791 2.2041 23.9008 2.32655C27.5813 4.44899 30.0201 8.16328 30.0201 12.4082Z" fill="#F2F2F2"/>
<path d="M29.621 18.449C27.5813 24 21.9054 28 15.1653 28C6.78446 28 0 21.6735 0 13.9592C0 6.2449 6.8288 0 15.2096 0C15.8304 0 16.4955 0.0408163 17.072 0.122449C17.3381 0.163265 17.2937 0.530612 17.0277 0.530612C16.9833 0.530612 16.939 0.530612 16.8946 0.530612C9.48937 0.530612 3.50309 6.08163 3.50309 12.9796C3.50309 19.8367 9.57806 25.3878 17.0277 25.3878C22.3931 25.3878 27.0491 22.4898 29.2219 18.3265C29.3106 18.0408 29.7097 18.2041 29.621 18.449Z" fill="#F2F2F2"/>
<path d="M44.0768 18.6123V5.42859H45.7618L52.1915 15.3878H51.3047L57.6457 5.42859H59.3307V18.6123H57.3796V8.24492H57.8674L52.2359 16.9796H51.3047L45.6288 8.24492H46.1609V18.6123H44.0768Z" fill="#F2F2F2"/>
<path d="M71.658 18.7755C69.7956 18.7755 68.288 18.2857 67.2238 17.3061C66.1595 16.3265 65.6274 14.8572 65.6274 12.9388V5.42859H67.6672V12.8572C67.6672 14.3265 68.0219 15.3878 68.7314 16.0817C69.4409 16.7755 70.4164 17.1021 71.7024 17.1021C72.9883 17.1021 74.0082 16.7755 74.7177 16.0817C75.4272 15.3878 75.7819 14.3265 75.7819 12.8572V5.42859H77.7773V12.9388C77.7773 14.8572 77.2452 16.2857 76.181 17.3061C75.0281 18.2857 73.5204 18.7755 71.658 18.7755Z" fill="#F2F2F2"/>
<path d="M83.941 18.6123V5.42859H85.9808V16.9796H93.7408V18.6123H83.941Z" fill="#F2F2F2"/>
<path d="M99.6827 18.6123V7.06124H94.7607V5.42859H106.6V7.06124H101.678V18.6123H99.6827Z" fill="#F2F2F2"/>
<path d="M110.901 18.6123V5.42859H112.941V18.6123H110.901Z" fill="#F2F2F2"/>
<path d="M119.282 18.6123V5.42859H124.869C126.111 5.42859 127.175 5.59185 128.106 5.9592C128.993 6.32655 129.659 6.85716 130.146 7.55104C130.634 8.24492 130.856 9.06124 130.856 10.0408C130.856 10.9796 130.634 11.7959 130.146 12.4898C129.659 13.1837 128.993 13.7143 128.106 14.0816C127.22 14.449 126.155 14.6531 124.869 14.6531H120.391L121.322 13.7551V18.6531H119.282V18.6123ZM121.322 13.9184L120.391 12.9796H124.781C126.111 12.9796 127.087 12.7347 127.752 12.2041C128.417 11.6735 128.772 10.9796 128.772 10C128.772 9.02043 128.417 8.32655 127.752 7.79594C127.087 7.26532 126.067 7.02043 124.781 7.02043H120.391L121.322 6.08165V13.9184Z" fill="#F2F2F2"/>
<path d="M133.029 18.6123L139.503 5.42859H141.542L148.061 18.6123H145.932L140.123 6.48981H140.922L135.113 18.6123H133.029ZM135.778 15.3061L136.31 13.7959H144.38L144.957 15.3061H135.778Z" fill="#F2F2F2"/>
<path d="M154.845 18.6123V13.5919L155.333 14.7755L149.169 5.4694H151.342L156.53 13.3061H155.333L160.521 5.42859H162.561L156.397 14.7347L156.841 13.551V18.6123H154.845Z" fill="#F2F2F2"/>
<path d="M168.503 16.9796H176.839V18.6123H166.419V5.42859H176.529V7.06124H168.503V16.9796ZM168.281 11.1021H175.642V12.6939H168.281V11.1021Z" fill="#F2F2F2"/>
<path d="M182.205 18.6123V5.42859H187.792C189.034 5.42859 190.098 5.59185 191.029 5.9592C191.916 6.32655 192.581 6.85716 193.069 7.55104C193.557 8.24492 193.778 9.06124 193.778 10.0408C193.778 10.9796 193.557 11.7959 193.069 12.4898C192.581 13.1837 191.916 13.7143 191.029 14.0816C190.142 14.449 189.078 14.6123 187.792 14.6123H183.313L184.245 13.7551V18.6531H182.205V18.6123ZM184.245 13.9184L183.313 12.9796H187.703C189.034 12.9796 190.009 12.7347 190.674 12.2041C191.339 11.6735 191.694 10.9388 191.694 10C191.694 9.06124 191.339 8.32655 190.674 7.79594C190.009 7.26532 188.989 7.02043 187.703 7.02043H183.313L184.245 6.08165V13.9184ZM191.783 18.6123L188.147 13.8368H190.32L194 18.6123H191.783Z" fill="#F2F2F2"/>
</g>
<defs>
<clipPath id="clip0_102_1920">
<rect width="194" height="28" fill="white"/>
</clipPath>
</defs>
</svg>
