<svg width="198" height="30" viewBox="0 0 198 30" fill="none" xmlns="http://www.w3.org/2000/svg">
<path fill-rule="evenodd" clip-rule="evenodd" d="M176.931 0.54165C176.644 0.839886 176.409 1.38292 176.409 1.74838C176.409 2.32934 176.163 2.41347 174.467 2.41347C171.419 2.41347 171.393 2.48001 171.501 9.86245C171.559 13.7536 171.715 16.002 171.925 15.9499C172.107 15.9047 172.332 14.5859 172.423 13.0193L172.589 10.171L177.156 10.0752C180.914 9.99623 181.724 9.88935 181.724 9.47182C181.724 9.04912 180.944 8.9643 177.059 8.9643H172.395L172.492 6.29225L172.589 3.6202L174.499 3.51676C176.407 3.41333 176.409 3.41436 176.409 4.41147C176.409 5.46512 177.281 6.55083 178.128 6.55083C178.889 6.55083 179.731 5.40513 179.731 4.36872V3.44781H184.674C189.511 3.44781 189.622 3.4647 189.812 4.2177C190.106 5.38168 190.633 4.56421 190.754 2.75825C190.828 1.65702 191.003 1.20673 191.357 1.20673C191.729 1.20673 191.88 1.69942 191.953 3.16095C192.04 4.87554 191.969 5.14241 191.372 5.33893C190.568 5.60372 190.484 6.14503 191.203 6.43119C191.954 6.73046 193.017 5.55752 193.017 4.42871C193.017 3.46953 193.058 3.44781 194.844 3.44781H196.671V6.20605V8.9643H190.194C184.658 8.9643 183.717 9.03946 183.717 9.48147C183.717 9.92348 184.658 9.99864 190.194 9.99864H196.671V15.3059C196.671 19.5408 196.765 20.6506 197.137 20.7986C197.393 20.9006 197.692 20.8913 197.801 20.7779C197.911 20.6648 198 16.8312 198 12.259C198 2.30762 198.032 2.41347 194.992 2.41347C193.294 2.41347 193.017 2.32417 193.017 1.77734C193.017 0.766448 191.853 -0.11757 190.862 0.140671C190.255 0.29858 189.95 0.660255 189.81 1.38843L189.613 2.41347H184.672C180.09 2.41347 179.731 2.36726 179.731 1.77734C179.731 1.01848 178.73 0 177.984 0C177.692 0 177.218 0.24376 176.931 0.54165ZM178.568 3.30403C178.568 4.88761 178.456 5.3441 178.07 5.3441C177.709 5.3441 177.543 4.88003 177.469 3.66399C177.35 1.72046 177.566 0.917462 178.153 1.12054C178.423 1.21397 178.568 1.97904 178.568 3.30403ZM81.4825 3.98463C80.9348 4.38251 80.7441 4.86727 80.7441 5.86127C80.7441 7.99753 82.7999 9.03015 84.3472 7.67137C86.6956 5.60889 84.007 2.14902 81.4825 3.98463ZM45.5076 5.18068C40.7858 5.99367 38.1194 9.55284 38.1434 15.0104C38.164 19.6032 40.1055 22.9779 43.4146 24.1715C45.7819 25.0259 52.3652 24.5243 53.0106 23.441C53.0937 23.301 52.9232 22.459 52.6313 21.5702C52.2171 20.3076 51.9822 20.0052 51.558 20.1879C48.0294 21.7067 44.1992 20.9265 43.0711 18.4589C41.1502 14.257 42.9213 9.34494 46.5506 8.80811C47.4591 8.67365 48.7273 8.78501 49.8523 9.09739C50.8572 9.37666 51.7733 9.49974 51.8882 9.3708C52.0031 9.24219 52.2822 8.53643 52.5084 7.80273C52.9764 6.28363 52.8249 6.07814 50.8489 5.55097C48.8984 5.03035 47.1036 4.90589 45.5076 5.18068ZM1.25892 5.45822L0 5.68888L0.000663974 14.998L0.00166057 24.307L2.0073 24.4098L4.01294 24.5122V21.2206V17.9286H5.9455C9.55353 17.9286 12.078 16.6595 13.2732 14.245C13.4781 13.8305 13.6459 12.5735 13.6459 11.4515C13.6459 7.36624 11.1984 5.47201 5.72162 5.3179C3.95979 5.26825 1.9515 5.33135 1.25892 5.45822ZM19.2927 5.47581L18.1301 5.68888L18.0415 14.7456L17.9531 23.8026L18.8719 24.1702C19.408 24.385 21.3828 24.4846 23.6109 24.4094C26.6898 24.306 27.7531 24.1295 29.0917 23.4999C32.5028 21.8953 33.9956 19.2308 33.9956 14.7473C33.9956 9.77453 31.5295 6.49912 27.0878 5.57338C25.0825 5.15551 21.298 5.10793 19.2927 5.47581ZM64.8 14.998V24.4794H66.793H68.786V20.5145V16.5495H72.4399H76.0937V14.8373V13.1251L72.5229 13.0272L68.9521 12.9293L68.8524 10.9468L68.7528 8.9643H72.9215H77.0902V7.2404V5.51649H70.9451H64.8V14.998ZM8.61249 9.56767C8.99017 9.89934 9.3818 10.5589 9.48278 11.033C9.89566 12.9738 8.11756 14.4167 5.25858 14.4615L4.01294 14.4808V11.7225V8.9643H5.96909C7.34892 8.9643 8.12786 9.14221 8.61249 9.56767ZM27.2535 9.56835C28.9635 10.4634 29.7561 12.1287 29.7561 14.8256C29.7561 18.6968 28.0647 20.5831 24.2733 20.9399L22.2823 21.1275V15.0459V8.9643L24.1922 8.96499C25.3492 8.96499 26.556 9.20289 27.2535 9.56835ZM92.8683 9.82522C92.6856 9.88969 91.9758 10.0393 91.2905 10.1583L90.0449 10.3748V17.4269V24.4794H91.8635H93.6821L93.7735 18.8767L93.8648 13.2741L95.2108 13.1713C96.2468 13.0924 96.7055 13.2392 97.2038 13.8098C97.7701 14.4584 97.8645 15.1735 97.9588 19.5315L98.0664 24.5122L99.9518 24.4098L101.837 24.307L101.818 19.1284C101.801 14.7287 101.701 13.7436 101.153 12.5776C100.243 10.641 98.2551 9.6449 95.3722 9.6811C94.1777 9.69592 93.051 9.76109 92.8683 9.82522ZM108.148 9.96037C107.329 10.1452 107.168 10.3379 107.245 11.0402C107.506 13.433 107.406 13.3592 110.143 13.1768C112.232 13.0375 112.758 13.1124 113.305 13.6264C113.666 13.9653 113.961 14.5291 113.961 14.879C113.961 15.4324 113.679 15.5151 111.791 15.5151C107.89 15.5151 105.912 17.0153 105.912 19.9756C105.912 22.1118 106.608 23.3168 108.256 24.0312C109.575 24.6032 113.047 24.737 115.871 24.3246L117.615 24.0698V18.724C117.615 12.4042 117.336 11.455 115.154 10.3586C113.72 9.63834 110.409 9.4501 108.148 9.96037ZM124.341 10.0659L122.597 10.3962V17.4549V24.5139L124.507 24.4105L126.417 24.307L126.509 18.7044L126.6 13.1017H127.92C128.798 13.1017 129.464 13.333 129.905 13.7912C130.508 14.4174 130.57 14.9404 130.57 19.4801V24.4794H132.563H134.556L134.554 19.7387C134.552 14.4218 134.223 12.6728 132.966 11.2895C131.524 9.70247 128.515 9.27564 124.341 10.0659ZM142.528 10.4265C141.706 10.884 140.589 11.9125 140.046 12.7121C139.232 13.9116 139.037 14.588 138.928 16.5826C138.693 20.8982 140.382 23.6144 143.834 24.4739C145.537 24.898 148.571 24.7328 149.45 24.1684C150.138 23.7275 149.61 20.6127 148.883 20.823C146.263 21.5815 144.272 21.2468 143.359 19.8942C143.053 19.4405 142.86 18.3737 142.86 17.1359C142.86 15.3493 142.975 14.9976 143.864 14.0753C144.8 13.1037 145.007 13.0413 146.922 13.1537L148.976 13.2741L149.279 11.9532C149.481 11.0716 149.464 10.51 149.228 10.2648C149.034 10.0628 147.783 9.82935 146.448 9.74592C144.351 9.6149 143.82 9.70696 142.528 10.4265ZM156.867 10.3938C153.668 12.037 152.204 17.4518 153.989 21.0344C155.397 23.8602 158.756 25.22 162.666 24.5477C163.887 24.3377 164.998 24.0422 165.135 23.8916C165.273 23.7409 165.281 22.9969 165.153 22.2384C164.967 21.1285 164.795 20.8785 164.271 20.9575C163.913 21.0116 162.599 21.0892 161.351 21.1299C159.141 21.2019 159.055 21.1726 158.043 19.9973L157.003 18.7906L161.557 18.6947L166.112 18.5989V16.7636C166.112 14.4736 165.609 12.8717 164.489 11.5939C162.7 9.55318 159.488 9.04739 156.867 10.3938ZM81.0763 17.239V24.5139L82.9863 24.4105L84.8962 24.307V17.239V10.171L82.9863 10.0676L81.0763 9.96416V17.239ZM161.769 14.0102C162.975 15.6006 162.725 15.8599 159.986 15.8599C158.627 15.8599 157.439 15.7327 157.346 15.5768C157.253 15.4214 157.467 14.8007 157.82 14.1977C158.367 13.2644 158.656 13.1017 159.772 13.1017C160.79 13.1017 161.234 13.303 161.769 14.0102ZM175.555 13.5571C175.456 13.8261 175.42 14.8807 175.477 15.9009L175.579 17.7562H177.738H179.897V15.5151V13.2741L177.816 13.1713C176.259 13.0944 175.69 13.1913 175.555 13.5571ZM182.531 13.5571C182.432 13.8261 182.396 14.8807 182.452 15.9009L182.554 17.7562H184.713H186.872V15.5151V13.2741L184.792 13.1713C183.234 13.0944 182.666 13.1913 182.531 13.5571ZM189.585 13.3316C189.463 13.4578 189.364 14.5511 189.364 15.7606V17.96L191.606 17.8583C194.18 17.741 194.489 17.1525 192.112 16.8943C190.553 16.7246 190.526 16.7015 190.526 15.5151C190.526 14.4115 190.616 14.2994 191.582 14.2022C192.515 14.1084 192.65 14.2057 192.744 15.0376C192.803 15.5555 193.033 16.0409 193.254 16.1164C193.755 16.2871 194.15 14.7783 193.855 13.8161C193.668 13.2023 193.368 13.1017 191.722 13.1017C190.668 13.1017 189.707 13.2051 189.585 13.3316ZM178.9 15.5151C178.9 16.6246 178.813 16.7305 177.821 16.8298C176.76 16.936 176.741 16.9125 176.741 15.5151C176.741 14.1177 176.76 14.0943 177.821 14.2005C178.813 14.2998 178.9 14.4056 178.9 15.5151ZM185.71 15.5369C185.71 16.9098 185.688 16.9356 184.63 16.8298C183.791 16.746 183.526 16.5433 183.441 15.9209C183.266 14.637 183.62 14.136 184.703 14.136C185.659 14.136 185.71 14.207 185.71 15.5369ZM171.648 18.1586C171.526 18.2848 171.426 20.7586 171.426 23.6554C171.426 28.7075 171.457 28.9443 172.165 29.4591C172.8 29.9208 174.569 29.9959 184.787 29.9959C199.013 29.9959 198.084 30.2955 197.93 25.7586C197.854 23.5168 197.73 22.9279 197.336 22.9279C196.941 22.9279 196.817 23.5189 196.741 25.7765L196.644 28.6254L184.617 28.5347L172.589 28.4444L172.497 23.1865C172.413 18.3603 172.27 17.5128 171.648 18.1586ZM113.961 19.8249V21.3764H112.201C110.372 21.3764 109.643 20.9706 109.643 19.9528C109.643 18.8702 110.596 18.2734 112.324 18.2734H113.961V19.8249ZM175.634 21.2616C175.512 21.3878 175.412 22.3963 175.412 23.5027C175.412 25.4076 175.455 25.5138 176.227 25.5138C177.01 25.5138 177.034 25.4455 176.845 23.7899L176.648 22.066H177.858C179.01 22.066 179.066 22.1208 179.066 23.2324C179.066 24.1091 178.901 24.4439 178.402 24.5794C177.31 24.8759 177.65 25.5138 178.9 25.5138H180.063V23.2727V21.0316H177.959C176.802 21.0316 175.756 21.1351 175.634 21.2616ZM182.388 23.2568V25.5138H184.729H187.07L186.971 23.3589L186.872 21.204L184.63 21.102L182.388 21.0002V23.2568ZM185.71 23.2727C185.71 24.4219 185.654 24.4794 184.547 24.4794C183.44 24.4794 183.385 24.4219 183.385 23.2727C183.385 22.1235 183.44 22.066 184.547 22.066C185.654 22.066 185.71 22.1235 185.71 23.2727Z" fill="white"/>
</svg>
