<svg width="168" height="46" viewBox="0 0 168 46" fill="none" xmlns="http://www.w3.org/2000/svg">
<g clip-path="url(#clip0_102_1901)">
<path fill-rule="evenodd" clip-rule="evenodd" d="M62.7697 40.3659C64.7506 40.3659 66.3284 39.9096 67.5031 38.9969C68.6778 38.0842 69.279 36.74 69.3067 34.9643V34.9062C69.2683 33.3737 68.7178 32.2371 67.6552 31.4964C66.4262 30.6824 65.0625 30.0974 63.6288 29.7695C62.9683 29.5916 62.321 29.3672 61.6917 29.0978C61.2494 28.8917 61.0268 28.6376 61.0237 28.3354V28.2796C61.0244 28.1658 61.0553 28.0542 61.1132 27.9565C61.1712 27.8588 61.254 27.7785 61.3531 27.7241C61.6499 27.5584 61.9861 27.478 62.3251 27.4917C63.0822 27.5143 63.8319 27.649 64.5502 27.8915C65.4204 28.171 66.2608 28.5377 67.0586 28.9862L68.9796 25.4045C68.0176 24.7877 66.9705 24.3178 65.8723 24.0099C64.7374 23.687 63.5641 23.522 62.385 23.5195C60.5008 23.5195 58.9652 23.9805 57.7782 24.9024C56.5912 25.8244 55.9839 27.1415 55.9562 28.8537V28.9141C55.9962 30.5024 56.5467 31.6646 57.6078 32.4006C58.834 33.2088 60.1998 33.7773 61.6341 34.0764C62.2888 34.239 62.9308 34.4495 63.5551 34.7063C63.9905 34.8992 64.207 35.1479 64.2093 35.45V35.5082C64.2172 35.6374 64.1892 35.7663 64.1286 35.8804C64.068 35.9945 63.9771 36.0894 63.8661 36.1543C63.5328 36.324 63.1605 36.4002 62.7881 36.3751C61.8742 36.3633 60.9679 36.2064 60.1023 35.9103C59.1085 35.5871 58.1618 35.1314 57.2876 34.5552L55.1892 37.9882C56.2858 38.7826 57.5045 39.3896 58.7963 39.7848C60.0848 40.1765 61.424 40.3724 62.7697 40.3659Z" fill="#F2F2F2"/>
<path d="M147.491 28.87C145.954 27.0268 142.953 26.6968 141.193 28.87H147.491ZM151.213 36.7191C150.534 37.6284 149.684 38.3938 148.712 38.9716C147.739 39.5494 146.664 39.9284 145.547 40.0868C143.29 40.4067 141 39.809 139.18 38.4251C137.36 37.0412 136.16 34.9845 135.843 32.7074C135.686 31.5799 135.75 30.4322 136.033 29.3299C136.315 28.2277 136.81 27.1923 137.489 26.283C142.158 20.0307 151.556 22.8245 152.818 30.0368V33.407H140.723C142.036 35.708 145.519 36.8028 147.622 33.988L151.213 36.7191Z" fill="#F2F2F2"/>
<path d="M100.951 23.8542H95.3879V40.5124H100.951V23.8542Z" fill="#F2F2F2"/>
<path d="M42.8637 23.1662C44.563 23.1662 46.2241 23.6747 47.637 24.6273C49.0499 25.5799 50.1511 26.9339 50.8014 28.5181C51.4517 30.1022 51.6218 31.8454 51.2903 33.5271C50.9588 35.2089 50.1405 36.7537 48.939 37.9661C47.7374 39.1786 46.2065 40.0043 44.5399 40.3388C42.8733 40.6733 41.1458 40.5016 39.5759 39.8455C38.0059 39.1893 36.6641 38.0781 35.72 36.6524C34.776 35.2267 34.2721 33.5505 34.2721 31.8358C34.2721 30.6973 34.4943 29.5699 34.9261 28.5181C35.3579 27.4662 35.9907 26.5105 36.7885 25.7055C37.5863 24.9004 38.5335 24.2618 39.5759 23.8261C40.6182 23.3904 41.7355 23.1662 42.8637 23.1662ZM42.8637 27.7032C42.0537 27.7032 41.2619 27.9456 40.5884 28.3997C39.915 28.8538 39.39 29.4992 39.0801 30.2543C38.7701 31.0095 38.689 31.8404 38.847 32.642C39.005 33.4437 39.3951 34.18 39.9678 34.758C40.5406 35.3359 41.2703 35.7295 42.0648 35.889C42.8592 36.0484 43.6827 35.9666 44.431 35.6538C45.1793 35.341 45.819 34.8113 46.269 34.1317C46.719 33.4521 46.9592 32.6531 46.9592 31.8358C46.9586 30.7402 46.5268 29.6896 45.7588 28.9151C44.9909 28.1406 43.9495 27.7055 42.8637 27.7055V27.7032Z" fill="#F2F2F2"/>
<path d="M86.2965 23.889V24.3539C84.9911 23.5787 83.5059 23.1654 81.9914 23.1559C80.4768 23.1463 78.9866 23.5409 77.6717 24.2995C76.3569 25.0582 75.2641 26.154 74.5041 27.476C73.744 28.798 73.3438 30.2993 73.3438 31.8276C73.3438 33.356 73.744 34.8572 74.5041 36.1792C75.2641 37.5012 76.3569 38.597 77.6717 39.3557C78.9866 40.1144 80.4768 40.5089 81.9914 40.4994C83.5059 40.4898 84.9911 40.0765 86.2965 39.3014V45.9907H90.795V23.889H86.2965ZM81.9431 35.9753C81.1331 35.9753 80.3413 35.7329 79.6678 35.2788C78.9943 34.8248 78.4694 34.1793 78.1594 33.4242C77.8494 32.6691 77.7683 31.8381 77.9263 31.0365C78.0844 30.2349 78.4744 29.4985 79.0472 28.9205C79.6199 28.3426 80.3497 27.949 81.1441 27.7895C81.9385 27.6301 82.762 27.7119 83.5103 28.0247C84.2587 28.3375 84.8983 28.8672 85.3483 29.5468C85.7983 30.2264 86.0385 31.0254 86.0385 31.8427C86.0379 32.3858 85.9312 32.9235 85.7246 33.4249C85.5179 33.9264 85.2153 34.3818 84.8341 34.7652C84.4529 35.1486 84.0005 35.4524 83.5029 35.6592C83.0052 35.866 82.4721 35.9719 81.9339 35.9707L81.9431 35.9753Z" fill="#F2F2F2"/>
<path d="M115.973 40.3287H114.497C108.989 40.3287 105.283 36.3379 105.412 31.1269V18.9987H109.911V25.3533H115.614V29.8903H109.911V31.1989C109.912 31.4431 109.929 31.687 109.964 31.9287C110.309 34.4552 111.754 35.7894 114.497 35.7894H115.973V40.3287Z" fill="#F2F2F2"/>
<path d="M131.312 40.5426H129.844C124.335 40.5426 120.631 36.5518 120.76 31.3407V19.2149H125.238V25.5695H130.943V30.1065H125.238V31.4174C125.24 31.6608 125.258 31.9038 125.291 32.1449C125.638 34.6714 127.083 36.0079 129.826 36.0079H131.302L131.312 40.5426Z" fill="#F2F2F2"/>
<path d="M168 27.9891H166.526C161.868 27.9891 161.919 32.289 161.937 32.5796V40.2497H157.439V32.6516C157.321 27.4406 161.016 23.4521 166.526 23.4521H168V27.9891Z" fill="#F2F2F2"/>
<path d="M25.5008 40.2892V32.2123C25.5008 27.5149 21.2396 27.5637 20.9516 27.5823C19.1918 27.5823 17.2455 29.2093 17.2455 32.2123V40.2892H12.7539V32.2123C12.7539 27.5149 8.4926 27.5637 8.20467 27.5823C6.44488 27.5823 4.49852 29.2093 4.49852 32.2123V40.2892H0V32.2123C0 27.2523 3.39519 23.0686 8.12866 23.0453C10.8927 22.9779 13.3205 24.0215 14.972 25.86C15.6941 24.9813 16.599 24.2736 17.6224 23.7872C18.6458 23.3007 19.7628 23.0475 20.894 23.0453C26.0582 22.9198 30.0155 26.6573 30.0155 32.2123V40.2892H25.5008Z" fill="#F2F2F2"/>
<path d="M95.8766 17.7522C96.4227 14.951 91.8102 11.6766 85.5742 10.4386C79.3381 9.20065 73.8401 10.4679 73.294 13.2691C72.7478 16.0703 77.3604 19.3446 83.5964 20.5826C89.8324 21.8206 95.3304 20.5534 95.8766 17.7522Z" fill="#F2F2F2"/>
<path opacity="0.76" d="M94.8297 19.3442C97.1305 17.6827 95.9971 12.108 92.2983 6.89274C88.5995 1.67751 83.7359 -1.20338 81.4352 0.458106C79.1344 2.11959 80.2678 7.69428 83.9666 12.9095C87.6654 18.1248 92.529 21.0056 94.8297 19.3442Z" fill="#F2F2F2"/>
<path d="M98.1336 22.1714C99.2836 22.1714 100.216 21.2306 100.216 20.0702C100.216 18.9098 99.2836 17.9691 98.1336 17.9691C96.9836 17.9691 96.0513 18.9098 96.0513 20.0702C96.0513 21.2306 96.9836 22.1714 98.1336 22.1714Z" fill="#F2F2F2"/>
</g>
<defs>
<clipPath id="clip0_102_1901">
<rect width="168" height="46" fill="white"/>
</clipPath>
</defs>
</svg>
