<svg width="55" height="34" viewBox="0 0 55 34" fill="none" xmlns="http://www.w3.org/2000/svg">
<g clip-path="url(#clip0_74_699)">
<path d="M22.7933 15.2004C22.7933 15.2004 27.9035 14.8233 27.9035 8.86566C27.9035 2.90763 23.7227 0 18.4268 0H1V33.2943H18.4268C18.4268 33.2943 29.0652 33.6284 29.0652 23.4674C29.0652 23.4674 29.529 15.2004 22.7933 15.2004ZM17.1724 5.91769H18.4268C18.4268 5.91769 20.7956 5.91769 20.7956 9.38182C20.7956 12.8455 19.4025 13.3477 17.8223 13.3477H8.67845V5.91769H17.1724ZM17.9343 27.3768H8.67845V18.4793H18.4268C18.4268 18.4793 21.9574 18.4333 21.9574 23.0517C21.9574 26.9461 19.3203 27.3474 17.9343 27.3768ZM43.2533 8.47106C30.3744 8.47106 30.3858 21.2637 30.3858 21.2637C30.3858 21.2637 29.5021 33.9908 43.2533 33.9908C43.2533 33.9908 54.7125 34.6416 54.7125 25.1373H48.8192C48.8192 25.1373 49.0158 28.7165 43.4499 28.7165C43.4499 28.7165 37.5556 29.1092 37.5556 22.924H54.9091C54.9091 22.924 56.8078 8.47106 43.2533 8.47106ZM37.4909 18.4793C37.4909 18.4793 38.2105 13.3476 43.3842 13.3476C48.5569 13.3476 48.4921 18.4793 48.4921 18.4793H37.4909ZM49.865 6.06141H36.0481V1.96146H49.865V6.06141Z" fill="#F2F2F2"/>
</g>
<defs>
<clipPath id="clip0_74_699">
<rect width="55" height="34" fill="white"/>
</clipPath>
</defs>
</svg>
