<svg width="108" height="31" viewBox="0 0 108 31" fill="none" xmlns="http://www.w3.org/2000/svg">
<g clip-path="url(#clip0_74_692)">
<path d="M28 0H32.9231V31H28V0ZM50.1538 21.111C50.1538 25.8552 46.1945 26.2334 45.0166 26.2334C42.0738 26.2334 41.5385 23.4583 41.5385 21.7843V9.92H36.6154V21.7595C36.6154 24.6983 37.5311 27.1238 39.136 28.7407C40.5538 30.1704 42.6782 30.9516 44.9797 30.9516C46.6117 30.9516 48.9231 30.4395 50.1538 29.3074V31H55.0769V9.92H50.1538V21.111ZM64.9231 2.48H60V9.92H56.3077V14.88H60V31H64.9231V14.88H68.6154V9.92H64.9231V2.48ZM84.1194 24.6971C83.0474 25.668 81.632 26.2062 80.0788 26.2062C76.6548 26.2062 74.1403 23.6728 74.1403 20.1946C74.1403 16.7164 76.5748 14.2898 80.0788 14.2898C81.6049 14.2898 83.0474 14.8019 84.1465 15.7728L84.8935 16.4201L88.2129 13.077L87.3822 12.3219C85.4289 10.545 82.8357 9.548 80.0775 9.548C73.9237 9.548 69.4548 14.0219 69.4548 20.1686C69.4548 26.2892 74.0308 30.9231 80.0775 30.9231C82.8874 30.9231 85.5077 29.9262 87.4363 28.1207L88.2388 27.3656L84.8677 24.025L84.1194 24.6971ZM105.785 11.7577C104.367 10.3292 102.705 9.548 100.404 9.548C98.7717 9.548 96.9231 10.0601 95.6923 11.191V0H90.7692V31H95.6923V19.3874C95.6923 14.6432 99.0375 14.2662 100.215 14.2662C103.158 14.2662 103.077 17.0426 103.077 18.7141V31H108V18.7401C108 15.8013 107.391 13.3759 105.785 11.7577Z" fill="#F2F2F2"/>
<path d="M79.939 16.6631C80.8813 16.6631 81.7851 17.0409 82.4514 17.7134C83.1178 18.3859 83.4921 19.2981 83.4921 20.2492C83.4921 21.2003 83.1178 22.1124 82.4514 22.7849C81.7851 23.4574 80.8813 23.8352 79.939 23.8352C78.9966 23.8352 78.0929 23.4574 77.4266 22.7849C76.7602 22.1124 76.3859 21.2003 76.3859 20.2492C76.3859 19.2981 76.7602 18.3859 77.4266 17.7134C78.0929 17.0409 78.9966 16.6631 79.939 16.6631Z" fill="#FF3D2E"/>
<path d="M21.0049 23.2848C19.154 25.2201 16.6399 26.2688 13.9944 26.2688C8.57185 26.2688 4.62909 21.9406 4.62909 16C4.62909 10.0322 8.57185 5.70404 13.9944 5.70404C16.6143 5.70404 19.1005 6.75144 20.9794 8.66076L21.7192 9.41385L24.9732 6.10717L24.2589 5.35408C21.561 2.53092 17.9103 1 13.9944 1C6.0054 1 0 7.45136 0 16.026C0 24.5746 6.03217 31 13.9944 31C17.9371 31 21.5878 29.4419 24.2857 26.6187L25 25.8656L21.7728 22.5058L21.0049 23.2848Z" fill="#F2F2F2"/>
</g>
<defs>
<clipPath id="clip0_74_692">
<rect width="108" height="31" fill="white"/>
</clipPath>
</defs>
</svg>
