<svg width="132" height="32" viewBox="0 0 132 32" fill="none" xmlns="http://www.w3.org/2000/svg">
<g clip-path="url(#clip0_74_697)">
<path d="M130.606 22.1599C130.197 21.8655 129.872 21.8239 129.604 22.3839C125.006 32.2511 117.261 27.3247 118.037 27.7583C119.758 26.9743 124.272 23.3912 123.595 18.4226C123.186 15.3855 120.562 14.0418 117.769 14.5314C112.903 15.3714 111.126 20.5781 112.028 25.1829C112.183 25.9807 112.466 26.6245 112.762 27.2683C107.275 31.7051 105.088 23.3074 104.834 22.2997C104.82 22.2437 109.08 18.7304 110.265 10.3468C111.506 1.57075 108.685 -0.0388498 105.794 0.0171502C100.448 0.11507 99.0086 11.1864 100.941 20.4101C100.786 20.452 100.024 20.8719 98.8112 20.9141C97.9366 18.1845 94.1985 15.7912 93.2252 16.7151C90.7849 19.0245 93.8177 23.5311 95.962 23.8811C94.6781 31.7333 86.6379 29.7877 88.133 19.9484C90.7426 15.1333 92.7457 7.95315 92.379 3.62835C92.2519 2.10227 91.1093 0.0453102 88.528 0.14323C83.5628 0.33907 83.0268 11.4104 83.6051 19.2764C83.577 19.0805 83.2948 20.228 81.2634 20.8021C80.7839 18.1567 76.4817 15.4834 75.4662 16.7711C73.576 19.1647 76.8626 23.4335 78.4141 23.7272C77.1306 31.5794 69.0903 29.6338 70.5855 19.7944C73.2093 14.9794 75.1982 7.81331 74.8454 3.48851C74.7186 1.96275 73.576 -0.0948498 70.9944 0.0033902C66.0292 0.19923 65.4932 11.2706 66.0718 19.1362C66.0434 18.9403 65.7612 20.1301 63.6453 20.6901C63.575 17.2469 59.2586 15.6792 58.2147 16.7711C56.3668 18.7304 58.6378 22.7474 60.7395 23.7272C59.456 31.5794 51.4158 29.6338 52.9109 19.7944C55.5205 14.9794 57.5236 7.79923 57.1569 3.47443C57.044 1.96275 55.9014 -0.0948498 53.3198 0.0033902C48.3546 0.19923 47.9599 11.8303 48.5381 19.6962C46.9017 26.6527 41.4147 35.3304 42.1339 17.933C42.2045 16.7151 42.2752 16.253 41.6685 15.7912C41.2032 15.4415 40.1592 15.6092 39.5949 15.6232C38.9038 15.6514 38.7206 16.0571 38.5793 16.6591C38.2268 18.2268 38.1562 19.7522 38.0998 21.8376C38.0717 22.8175 37.9869 23.2655 37.606 24.5951C37.2251 25.9247 35.0812 28.3461 33.8963 27.9404C32.2599 27.3804 32.7959 22.8034 33.1062 19.6543C33.3603 17.1631 32.5421 16.0575 30.4546 15.6511C29.2272 15.3996 28.4796 15.4415 27.2102 15.0354C25.997 14.6578 25.729 12.3903 23.1619 13.1461C21.7513 13.566 22.654 16.5189 22.3153 18.7167C20.6509 29.5077 17.195 29.8015 15.587 24.5669C22.8091 6.98739 17.6607 0.0590702 14.656 0.0590702C11.5245 0.0590702 7.94155 2.20083 9.45085 15.9173C8.71748 15.7074 8.49173 15.5954 7.67355 15.5954C3.11728 15.5813 0 19.2485 0 23.7691C0 28.2901 3.11728 31.9573 7.68774 31.9573C10.3819 31.9573 12.2721 30.7394 13.7107 28.8639C14.6418 30.1938 15.7844 31.9851 17.872 31.9013C24.0785 31.6632 25.8841 19.0245 26.0957 18.3109C26.7587 18.4085 27.3934 18.6047 28 18.7026C29.0159 18.8565 29.1004 19.2626 29.072 20.2703C28.8044 28.8639 30.3982 31.8735 34.0234 31.8735C36.0403 31.8735 37.846 29.8997 39.0873 28.5C40.0183 30.4037 41.485 31.8171 43.4742 31.8731C48.2701 31.9851 50.118 24.3992 49.9487 25.3931C49.8217 26.1765 51.5003 31.8172 56.4516 31.8453C62.5733 31.8731 63.7159 25.197 63.843 24.0773C63.8571 23.8533 63.871 23.8811 63.843 24.0773V24.1471C65.7896 23.7832 66.7909 22.7615 66.7909 22.7615C66.7909 22.7615 68.3567 31.9573 74.1262 31.8591C80.1211 31.7471 81.2634 25.7151 81.4047 24.5391C81.4189 24.2591 81.4327 24.2872 81.4047 24.5391V24.5669C83.718 23.7272 84.3246 22.9016 84.3246 22.9016C84.3246 22.9016 85.5659 31.9154 91.6595 31.9992C97.0904 32.0693 99.1073 26.5407 99.1215 24.2312C100.038 24.245 101.731 23.6853 101.689 23.6575C101.689 23.6575 103.678 31.5375 109.235 31.9432C111.845 32.1391 113.806 30.4876 114.92 29.732C117.544 31.8453 126.275 34.5327 131.791 25.253C132.58 23.9372 130.902 22.356 130.606 22.1599ZM7.46199 28.8917C4.79589 28.8917 3.0889 26.4424 3.0889 23.8111C3.0889 21.1797 4.65496 18.7301 7.32106 18.7301C8.51979 18.7301 9.18285 18.8562 10.1281 19.6677C10.2971 20.326 10.777 21.8514 11.0166 22.5512C11.3268 23.4751 11.7077 24.2728 12.0744 25.1266C11.5245 27.3378 9.77528 28.8917 7.46199 28.8917ZM13.9507 19.7381C13.8378 19.556 13.8659 19.6677 13.7391 19.5C13.2596 18.1845 12.3143 15.245 12.2014 11.9C12.0747 8.12083 12.7094 3.68403 14.5854 3.68403C15.855 3.68403 17.2092 12.6696 13.9507 19.7381ZM51.4861 15.805C51.19 13.5656 51.1758 3.55795 53.5881 3.83795C54.9281 4.36979 52.7416 13.8034 51.4861 15.805ZM69.1607 15.805C68.8646 13.5656 68.8504 3.55795 71.2627 3.83795C72.6027 4.36979 70.4161 13.8034 69.1607 15.805ZM86.6943 15.9448C86.3979 13.7055 86.3841 3.69811 88.796 3.97779C90.136 4.49587 87.9498 13.9436 86.6943 15.9448ZM106.047 3.23603C108.262 3.01203 108.163 12.5999 103.734 18.6463C103.156 16.4629 102.281 3.99187 106.047 3.23603ZM115.357 23.8808C114.652 20.3119 116.486 17.9743 118.376 17.7224C119.039 17.6245 119.998 18.0443 120.181 18.8424C120.492 20.34 120.139 22.5653 115.893 25.3784C115.908 25.3925 115.513 24.6648 115.357 23.8808ZM40.3286 12.8799C41.8379 12.8799 43.065 11.6623 43.065 10.1647C43.065 8.66707 41.8379 7.44947 40.3286 7.44947C38.8193 7.44947 37.5918 8.66707 37.5918 10.1647C37.5918 11.6623 38.8193 12.8799 40.3286 12.8799Z" fill="#F2F2F2"/>
</g>
<defs>
<clipPath id="clip0_74_697">
<rect width="132" height="32" fill="white"/>
</clipPath>
</defs>
</svg>
