<svg width="36" height="36" viewBox="0 0 36 36" fill="none" xmlns="http://www.w3.org/2000/svg">
<path d="M6.57143 3C4.60749 3 3 4.60749 3 6.57143V29.4286C3 31.3925 4.60749 33 6.57143 33H29.4286C31.3925 33 33 31.3925 33 29.4286V6.57143C33 4.60749 31.3925 3 29.4286 3H6.57143ZM6.57143 4.42857H29.4286C30.6203 4.42857 31.5714 5.37965 31.5714 6.57143V29.4286C31.5714 30.6203 30.6203 31.5714 29.4286 31.5714H6.57143C5.37965 31.5714 4.42857 30.6203 4.42857 29.4286V6.57143C4.42857 5.37965 5.37965 4.42857 6.57143 4.42857ZM10.1429 8.00837C9.36056 8.00837 8.65659 8.2422 8.13532 8.6808C7.61406 9.11941 7.29409 9.77465 7.29409 10.4763C7.29409 11.81 8.45092 12.8497 9.92243 12.9526L9.92522 12.954C9.99534 12.9779 10.0688 12.9906 10.1429 12.9916C11.7664 12.9916 12.9916 11.8543 12.9916 10.4763C12.9915 10.4637 12.991 10.4512 12.9902 10.4386C12.9176 9.08131 11.7075 8.00837 10.1429 8.00837ZM10.1429 9.4202C11.1373 9.4202 11.53 9.86431 11.5728 10.4944C11.5641 11.106 11.1858 11.5798 10.1429 11.5798C9.15328 11.5798 8.70592 11.073 8.70592 10.4763C8.70592 10.1779 8.81479 9.95307 9.04353 9.7606C9.27226 9.56814 9.63944 9.4202 10.1429 9.4202ZM8 13.7143C7.81057 13.7143 7.6289 13.7896 7.49495 13.9235C7.36099 14.0575 7.28573 14.2391 7.28571 14.4286V28C7.28573 28.1894 7.36099 28.3711 7.49495 28.5051C7.6289 28.639 7.81057 28.7143 8 28.7143H12.2857C12.4751 28.7143 12.6568 28.639 12.7908 28.5051C12.9247 28.3711 13 28.1894 13 28V23.8105V14.4286C13 14.2391 12.9247 14.0575 12.7908 13.9235C12.6568 13.7896 12.4751 13.7143 12.2857 13.7143H8ZM14.4286 13.7143C14.2391 13.7143 14.0575 13.7896 13.9235 13.9235C13.7896 14.0575 13.7143 14.2391 13.7143 14.4286V28C13.7143 28.1894 13.7896 28.3711 13.9235 28.5051C14.0575 28.639 14.2391 28.7143 14.4286 28.7143H18.7143C18.9037 28.7143 19.0854 28.639 19.2193 28.5051C19.3533 28.3711 19.4286 28.1894 19.4286 28V20.8571C19.4286 20.2645 19.5903 19.675 19.875 19.2891C20.1597 18.9031 20.5189 18.6715 21.2017 18.6836C21.9058 18.6957 22.2786 18.9369 22.5605 19.3156C22.8425 19.6942 23 20.2619 23 20.8571V28C23 28.1894 23.0753 28.3711 23.2092 28.5051C23.3432 28.639 23.5249 28.7143 23.7143 28.7143H28C28.1894 28.7143 28.3711 28.639 28.5051 28.5051C28.639 28.3711 28.7143 28.1894 28.7143 28V20.3298C28.7143 18.2144 28.0877 16.5388 27.0137 15.4051C25.9396 14.2715 24.4458 13.7143 22.8661 13.7143C21.3646 13.7143 20.222 14.2178 19.4286 14.7313V14.4286C19.4286 14.2391 19.3533 14.0575 19.2193 13.9235C19.0854 13.7896 18.9037 13.7143 18.7143 13.7143H14.4286ZM8.71429 15.1429H11.5714V23.8105V27.2857H8.71429V15.1429ZM15.1429 15.1429H18V16.2575C18 16.4073 18.0472 16.5533 18.1347 16.6748C18.2222 16.7964 18.3458 16.8873 18.4878 16.9348C18.6298 16.9823 18.7832 16.984 18.9263 16.9395C19.0693 16.8951 19.1947 16.8068 19.2849 16.6872C19.2849 16.6872 20.4066 15.1429 22.8661 15.1429C24.1184 15.1429 25.1924 15.559 25.9771 16.3873C26.7618 17.2156 27.2857 18.4916 27.2857 20.3298V27.2857H24.4286V20.8571C24.4286 20.0238 24.2289 19.1622 23.7073 18.4618C23.1857 17.7613 22.3085 17.2736 21.2268 17.255C20.1397 17.2357 19.2482 17.7336 18.7254 18.4422C18.2027 19.1509 18 20.0212 18 20.8571V27.2857H15.1429V15.1429Z" fill="#F2F2F2"/>
</svg>
