<svg width="36" height="33" viewBox="0 0 36 33" fill="none" xmlns="http://www.w3.org/2000/svg">
<path d="M31.112 4.00191C30.7576 4.01581 30.4125 4.10394 30.1014 4.21526C29.7934 4.32583 28.0204 5.00191 25.4021 6.00201C22.7839 7.00211 19.3804 8.30444 16.0065 9.59584C9.25882 12.1786 2.62806 14.7199 2.62806 14.7199L2.67638 14.7034C2.67638 14.7034 2.27618 14.8229 1.87044 15.0755C1.66756 15.2018 1.4493 15.3648 1.27059 15.6025C1.09189 15.8402 0.961238 16.177 1.01047 16.5333C1.18341 17.7848 2.63516 18.1397 2.63516 18.1397L2.64085 18.1423L9.11971 20.1233C9.28489 20.6156 11.0848 25.9826 11.4807 27.1192C11.6994 27.7476 11.904 28.1101 12.1175 28.3574C12.2243 28.4811 12.3363 28.5769 12.4601 28.6469C12.5092 28.6747 12.561 28.6956 12.6122 28.7142H12.615C12.6213 28.7167 12.6272 28.7169 12.6335 28.7193L12.6164 28.7155C12.6283 28.7198 12.64 28.727 12.652 28.7307C12.675 28.738 12.6892 28.7377 12.7188 28.7434C13.4608 28.9749 14.0748 28.5453 14.0748 28.5453L14.1004 28.5275L18.0804 25.2296L24.5393 29.7289L24.6204 29.7619C25.7509 30.2104 26.7733 29.9602 27.3395 29.5485C27.9058 29.1369 28.1284 28.6063 28.1284 28.6063L28.1526 28.5504L32.8987 6.45029C33.0202 5.95586 33.0374 5.52848 32.9229 5.14229C32.8084 4.75609 32.5301 4.42038 32.1809 4.23431C31.8317 4.04823 31.4665 3.98802 31.112 4.00191ZM31.1504 5.32388C31.2943 5.31793 31.401 5.33263 31.4347 5.35055C31.4683 5.36847 31.4834 5.36611 31.5157 5.475C31.548 5.58389 31.5655 5.81323 31.4773 6.17218L31.4745 6.1798L26.7553 28.1517C26.7442 28.1738 26.6458 28.377 26.4213 28.5402C26.1923 28.7068 25.9375 28.8367 25.2614 28.5834L18.1984 23.6625L17.9994 23.5229L17.9951 23.5267L15.8829 22.1107L27.7532 9.63393C27.8444 9.53831 27.9026 9.42113 27.9209 9.29656C27.9391 9.17198 27.9166 9.04536 27.856 8.93198C27.7954 8.81861 27.6994 8.72335 27.5795 8.65771C27.4595 8.59208 27.3209 8.55888 27.1803 8.56213C27.043 8.56532 26.9094 8.60319 26.7951 8.67135L9.61863 18.9017L3.12982 16.9168C3.12982 16.9168 2.48548 16.5965 2.45464 16.3733C2.45293 16.3609 2.44532 16.3721 2.47881 16.3276C2.51229 16.2831 2.59645 16.2079 2.70197 16.1422C2.91301 16.0108 3.15398 15.9314 3.15398 15.9314L3.17815 15.9238L3.20231 15.9149C3.20231 15.9149 9.83343 13.3735 16.5808 10.7908C19.9544 9.49949 23.3574 8.19811 25.975 7.19826C28.5919 6.19867 30.4828 5.47917 30.6429 5.42166C30.8252 5.35645 31.0064 5.32984 31.1504 5.32388ZM23.2785 12.3287L14.2766 21.7907L14.2724 21.7945C14.2583 21.8096 14.245 21.8253 14.2326 21.8415C14.2183 21.8591 14.205 21.8773 14.1928 21.8961C14.1422 21.9728 14.1098 22.058 14.0975 22.1463C14.0975 22.148 14.0975 22.1497 14.0975 22.1514L12.9249 26.8627C12.9054 26.8118 12.8917 26.7932 12.8709 26.7332V26.7319C12.4984 25.6627 10.8002 20.6011 10.5653 19.9011L23.2785 12.3287ZM15.293 23.3413L16.9105 24.4258L14.5339 26.3941L15.293 23.3413Z" fill="#F2F2F2"/>
</svg>
