<svg width="22" height="22" viewBox="0 0 22 22" fill="none" xmlns="http://www.w3.org/2000/svg">
<path d="M16.4239 16.97C16.434 16.8356 16.4392 16.701 16.4377 16.5997C16.4424 16.5589 16.755 12.2886 11.1276 10.5789C6.20817 9.08447 6.42709 5.62244 6.44041 5.4394C6.44041 5.37108 6.44188 5.30235 6.4451 5.23357C6.55338 2.79252 8.55403 0.879985 10.9998 0.879985C13.5139 0.879986 15.5594 2.92529 15.5594 5.4394C15.5594 6.99788 14.7756 8.43257 13.4628 9.27734L13.9389 10.0173C15.5047 9.01007 16.4395 7.29867 16.4395 5.4394C16.4394 2.4402 13.9992 -1.06782e-07 10.9998 -2.37893e-07C8.082 -3.65433e-07 5.69506 2.28161 5.56596 5.19407C5.56252 5.27527 5.5606 5.35646 5.56207 5.4003C5.56163 5.40459 5.55778 5.45616 5.55778 5.54643C5.55778 6.31425 5.83623 9.89099 10.872 11.4211C15.7914 12.9155 15.5723 16.3784 15.5594 16.5606C15.5594 16.6762 15.5549 16.7913 15.5465 16.9048C15.3703 19.2685 13.3734 21.12 10.9998 21.12C8.48566 21.12 6.44036 19.0747 6.44036 16.5606C6.44036 15.0021 7.22409 13.5678 8.53701 12.7231L8.06091 11.9832C6.4951 12.9903 5.56033 14.7014 5.56033 16.5606C5.56033 19.5598 8.00054 22 10.9997 22C13.8314 22 16.214 19.7905 16.4239 16.97Z" fill="#545454"/>
</svg>
