<svg width="13" height="13" viewBox="0 0 13 13" fill="none" xmlns="http://www.w3.org/2000/svg">
<path d="M9.36665 5.663H8.17134C8.13725 5.46697 8.0744 5.29332 7.98278 5.14205C7.89116 4.98864 7.77717 4.85866 7.6408 4.75213C7.50444 4.6456 7.3489 4.5657 7.17418 4.51243C7.0016 4.45703 6.81516 4.42933 6.61488 4.42933C6.25906 4.42933 5.94371 4.51882 5.66886 4.6978C5.394 4.87464 5.1788 5.13459 5.02326 5.47763C4.86772 5.81854 4.78995 6.23509 4.78995 6.72727C4.78995 7.22798 4.86772 7.64986 5.02326 7.9929C5.18093 8.33381 5.39613 8.59162 5.66886 8.76634C5.94371 8.93892 6.25799 9.02521 6.61168 9.02521C6.80771 9.02521 6.99094 8.99964 7.1614 8.94851C7.33398 8.89524 7.48846 8.81747 7.62482 8.7152C7.76332 8.61293 7.87944 8.48722 7.97319 8.33807C8.06907 8.18892 8.13512 8.01847 8.17134 7.8267L9.36665 7.8331C9.32191 8.14418 9.22496 8.43608 9.07582 8.70881C8.9288 8.98153 8.73597 9.2223 8.49734 9.43111C8.2587 9.63778 7.97958 9.79972 7.65998 9.9169C7.34038 10.032 6.98562 10.0895 6.5957 10.0895C6.02042 10.0895 5.50692 9.95632 5.05522 9.68999C4.60352 9.42365 4.24769 9.03906 3.98775 8.53622C3.72781 8.03338 3.59783 7.4304 3.59783 6.72727C3.59783 6.02202 3.72887 5.41903 3.99094 4.91832C4.25302 4.41548 4.60991 4.03089 5.06161 3.76456C5.51332 3.49822 6.02468 3.36506 6.5957 3.36506C6.96005 3.36506 7.29883 3.41619 7.61204 3.51847C7.92525 3.62074 8.20437 3.77095 8.4494 3.96911C8.69442 4.16513 8.89577 4.40589 9.05345 4.69141C9.21325 4.97479 9.31765 5.29865 9.36665 5.663ZM6.48384 12.8764C5.80416 12.8764 5.15643 12.7731 4.54066 12.5664C3.92702 12.3597 3.36346 12.0678 2.84996 11.6907C2.3386 11.3157 1.89435 10.8714 1.51722 10.358C1.14222 9.84659 0.851385 9.28409 0.644709 8.67045C0.438033 8.05469 0.334695 7.40696 0.334695 6.72727C0.334695 6.04759 0.438033 5.40092 0.644709 4.78729C0.851385 4.17152 1.14222 3.60795 1.51722 3.09659C1.89435 2.5831 2.3386 2.13885 2.84996 1.76385C3.36346 1.38672 3.92702 1.09482 4.54066 0.888139C5.15643 0.681463 5.80416 0.578125 6.48384 0.578125C7.16353 0.578125 7.81019 0.681463 8.42383 0.888139C9.0396 1.09482 9.60316 1.38672 10.1145 1.76385C10.628 2.13885 11.0723 2.5831 11.4473 3.09659C11.8244 3.60795 12.1163 4.17152 12.323 4.78729C12.5297 5.40092 12.633 6.04759 12.633 6.72727C12.633 7.40696 12.5297 8.05469 12.323 8.67045C12.1163 9.28409 11.8244 9.84659 11.4473 10.358C11.0723 10.8714 10.628 11.3157 10.1145 11.6907C9.60316 12.0678 9.0396 12.3597 8.42383 12.5664C7.81019 12.7731 7.16353 12.8764 6.48384 12.8764ZM6.48384 12.0231C7.06978 12.0231 7.62695 11.9336 8.15536 11.7546C8.6859 11.5756 9.1717 11.3242 9.61275 11.0004C10.0538 10.6765 10.4363 10.294 10.7601 9.85298C11.084 9.41193 11.3343 8.9272 11.5112 8.39879C11.6902 7.86825 11.7797 7.31108 11.7797 6.72727C11.7797 6.14134 11.6902 5.58416 11.5112 5.05575C11.3343 4.52521 11.084 4.03942 10.7601 3.59837C10.4363 3.15732 10.0538 2.77486 9.61275 2.45099C9.1717 2.12713 8.6859 1.87678 8.15536 1.69993C7.62695 1.52095 7.06978 1.43146 6.48384 1.43146C5.89791 1.43146 5.34073 1.52095 4.81232 1.69993C4.28391 1.87678 3.79812 2.12713 3.35494 2.45099C2.91388 2.77486 2.53143 3.15732 2.20756 3.59837C1.8837 4.03942 1.63228 4.52521 1.4533 5.05575C1.27646 5.58416 1.18803 6.14134 1.18803 6.72727C1.18803 7.31108 1.27646 7.86825 1.4533 8.39879C1.63228 8.9272 1.8837 9.41193 2.20756 9.85298C2.53143 10.294 2.91388 10.6765 3.35494 11.0004C3.79812 11.3242 4.28391 11.5756 4.81232 11.7546C5.34073 11.9336 5.89791 12.0231 6.48384 12.0231Z" fill="#F2F2F2"/>
</svg>
